<svg width="760" height="67" viewBox="0 0 760 67" fill="none" xmlns="http://www.w3.org/2000/svg">
<g clip-path="url(#clip0_71_147)">
<path d="M380 29H-3V67H380V29Z" fill="url(#paint0_linear_71_147)"/>
<path d="M761 29H380V67H761V29Z" fill="url(#paint1_linear_71_147)"/>
<path d="M19.9623 54C20.6605 54 21.2264 54.4518 21.2264 55.0091C21.2264 55.5665 20.6605 56.0183 19.9623 56.0183H2.26418C1.566 56.0183 1.00002 55.5665 1.00002 55.0091C1.00002 54.4518 1.566 54 2.26418 54H19.9623Z" fill="#C7A624"/>
<path d="M53.9623 54C54.6605 54 55.2264 54.4518 55.2264 55.0091C55.2264 55.5665 54.6605 56.0183 53.9623 56.0183H36.2642C35.566 56.0183 35 55.5665 35 55.0091C35 54.4518 35.566 54 36.2642 54H53.9623Z" fill="#C7A624"/>
<path d="M221.962 54C222.66 54 223.226 54.4518 223.226 55.0091C223.226 55.5665 222.66 56.0183 221.962 56.0183H204.264C203.566 56.0183 203 55.5665 203 55.0091C203 54.4518 203.566 54 204.264 54H221.962Z" fill="#C7A624"/>
<path d="M189.962 54C190.66 54 191.226 54.4518 191.226 55.0091C191.226 55.5665 190.66 56.0183 189.962 56.0183H172.264C171.566 56.0183 171 55.5665 171 55.0091C171 54.4518 171.566 54 172.264 54H189.962Z" fill="#C7A624"/>
<path d="M154.962 54C155.66 54 156.226 54.4518 156.226 55.0091C156.226 55.5665 155.66 56.0183 154.962 56.0183H137.264C136.566 56.0183 136 55.5665 136 55.0091C136 54.4518 136.566 54 137.264 54H154.962Z" fill="#C7A624"/>
<path d="M121.962 54C122.66 54 123.226 54.4518 123.226 55.0091C123.226 55.5665 122.66 56.0183 121.962 56.0183H104.264C103.566 56.0183 103 55.5665 103 55.0091C103 54.4518 103.566 54 104.264 54H121.962Z" fill="#C7A624"/>
<path d="M87.9623 54C88.6605 54 89.2264 54.4518 89.2264 55.0091C89.2264 55.5665 88.6605 56.0183 87.9623 56.0183H70.2642C69.566 56.0183 69 55.5665 69 55.0091C69 54.4518 69.566 54 70.2642 54H87.9623Z" fill="#C7A624"/>
<path d="M256.962 54C257.66 54 258.226 54.4518 258.226 55.0091C258.226 55.5665 257.66 56.0183 256.962 56.0183H239.264C238.566 56.0183 238 55.5665 238 55.0091C238 54.4518 238.566 54 239.264 54H256.962Z" fill="#C7A624"/>
<path d="M288.962 54C289.66 54 290.226 54.4518 290.226 55.0091C290.226 55.5665 289.66 56.0183 288.962 56.0183H271.264C270.566 56.0183 270 55.5665 270 55.0091C270 54.4518 270.566 54 271.264 54H288.962Z" fill="#C7A624"/>
<path d="M459.962 54C460.66 54 461.226 54.4518 461.226 55.0091C461.226 55.5665 460.66 56.0183 459.962 56.0183H442.264C441.566 56.0183 441 55.5665 441 55.0091C441 54.4518 441.566 54 442.264 54H459.962Z" fill="#C7A624"/>
<path d="M427.962 54C428.66 54 429.226 54.4518 429.226 55.0091C429.226 55.5665 428.66 56.0183 427.962 56.0183H410.264C409.566 56.0183 409 55.5665 409 55.0091C409 54.4518 409.566 54 410.264 54H427.962Z" fill="#C7A624"/>
<path d="M393.962 54C394.66 54 395.226 54.4518 395.226 55.0091C395.226 55.5665 394.66 56.0183 393.962 56.0183H376.264C375.566 56.0183 375 55.5665 375 55.0091C375 54.4518 375.566 54 376.264 54H393.962Z" fill="#C7A624"/>
<path d="M760.962 55C761.661 55 762.227 55.4518 762.227 56.0091C762.227 56.5665 761.661 57.0183 760.962 57.0183H743.264C742.566 57.0183 742 56.5665 742 56.0091C742 55.4518 742.566 55 743.264 55H760.962Z" fill="#C7A624"/>
<path d="M728.962 55C729.661 55 730.227 55.4518 730.227 56.0091C730.227 56.5665 729.661 57.0183 728.962 57.0183H711.264C710.566 57.0183 710 56.5665 710 56.0091C710 55.4518 710.566 55 711.264 55H728.962Z" fill="#C7A624"/>
<path d="M694.962 55C695.661 55 696.227 55.4518 696.227 56.0091C696.227 56.5665 695.661 57.0183 694.962 57.0183H677.264C676.566 57.0183 676 56.5665 676 56.0091C676 55.4518 676.566 55 677.264 55H694.962Z" fill="#C7A624"/>
<path d="M660.962 54C661.661 54 662.227 54.4518 662.227 55.0091C662.227 55.5665 661.661 56.0183 660.962 56.0183H643.264C642.566 56.0183 642 55.5665 642 55.0091C642 54.4518 642.566 54 643.264 54H660.962Z" fill="#C7A624"/>
<path d="M628.962 54C629.661 54 630.227 54.4518 630.227 55.0091C630.227 55.5665 629.661 56.0183 628.962 56.0183H611.264C610.566 56.0183 610 55.5665 610 55.0091C610 54.4518 610.566 54 611.264 54H628.962Z" fill="#C7A624"/>
<path d="M594.962 54C595.661 54 596.227 54.4518 596.227 55.0091C596.227 55.5665 595.661 56.0183 594.962 56.0183H577.264C576.566 56.0183 576 55.5665 576 55.0091C576 54.4518 576.566 54 577.264 54H594.962Z" fill="#C7A624"/>
<path d="M559.962 54C560.661 54 561.227 54.4518 561.227 55.0091C561.227 55.5665 560.661 56.0183 559.962 56.0183H542.264C541.566 56.0183 541 55.5665 541 55.0091C541 54.4518 541.566 54 542.264 54H559.962Z" fill="#C7A624"/>
<path d="M527.962 54C528.661 54 529.227 54.4518 529.227 55.0091C529.227 55.5665 528.661 56.0183 527.962 56.0183H510.264C509.566 56.0183 509 55.5665 509 55.0091C509 54.4518 509.566 54 510.264 54H527.962Z" fill="#C7A624"/>
<path d="M493.962 54C494.66 54 495.226 54.4518 495.226 55.0091C495.226 55.5665 494.66 56.0183 493.962 56.0183H476.264C475.566 56.0183 475 55.5665 475 55.0091C475 54.4518 475.566 54 476.264 54H493.962Z" fill="#C7A624"/>
<path d="M358.962 54C359.66 54 360.226 54.4518 360.226 55.0091C360.226 55.5665 359.66 56.0183 358.962 56.0183H341.264C340.566 56.0183 340 55.5665 340 55.0091C340 54.4518 340.566 54 341.264 54H358.962Z" fill="#C7A624"/>
<path d="M321.962 54C322.66 54 323.226 54.4518 323.226 55.0091C323.226 55.5665 322.66 56.0183 321.962 56.0183H304.264C303.566 56.0183 303 55.5665 303 55.0091C303 54.4518 303.566 54 304.264 54H321.962Z" fill="#C7A624"/>
<path d="M7.09157 1.26415C7.09157 0.56598 6.63975 0 6.0824 0C5.52506 0 5.07324 0.56598 5.07324 1.26415V29.0755C5.07324 29.7736 5.52506 30.3396 6.0824 30.3396C6.63975 30.3396 7.09157 29.7736 7.09157 29.0755V1.26415Z" fill="url(#paint2_linear_71_147)"/>
<path d="M7.09157 1.26415C7.09157 0.56598 6.63975 0 6.0824 0C5.52506 0 5.07324 0.56598 5.07324 1.26415V29.0755C5.07324 29.7736 5.52506 30.3396 6.0824 30.3396C6.63975 30.3396 7.09157 29.7736 7.09157 29.0755V1.26415Z" fill="url(#paint3_linear_71_147)"/>
<path d="M7.09157 1.26415C7.09157 0.56598 6.63975 0 6.0824 0C5.52506 0 5.07324 0.56598 5.07324 1.26415V29.0755C5.07324 29.7736 5.52506 30.3396 6.0824 30.3396C6.63975 30.3396 7.09157 29.7736 7.09157 29.0755V1.26415Z" fill="url(#paint4_linear_71_147)"/>
<path d="M27.2749 12.6415C27.2749 11.9434 26.8231 11.3774 26.2658 11.3774C25.7084 11.3774 25.2566 11.9434 25.2566 12.6415V29.0755C25.2566 29.7737 25.7084 30.3396 26.2658 30.3396C26.8231 30.3396 27.2749 29.7737 27.2749 29.0755V12.6415Z" fill="url(#paint5_linear_71_147)"/>
<path d="M27.2749 12.6415C27.2749 11.9434 26.8231 11.3774 26.2658 11.3774C25.7084 11.3774 25.2566 11.9434 25.2566 12.6415V29.0755C25.2566 29.7737 25.7084 30.3396 26.2658 30.3396C26.8231 30.3396 27.2749 29.7737 27.2749 29.0755V12.6415Z" fill="url(#paint6_linear_71_147)"/>
<path d="M27.2749 12.6415C27.2749 11.9434 26.8231 11.3774 26.2658 11.3774C25.7084 11.3774 25.2566 11.9434 25.2566 12.6415V29.0755C25.2566 29.7737 25.7084 30.3396 26.2658 30.3396C26.8231 30.3396 27.2749 29.7737 27.2749 29.0755V12.6415Z" fill="url(#paint7_linear_71_147)"/>
<path d="M47.4581 1.26415C47.4581 0.56598 47.0063 0 46.449 0C45.8916 0 45.4398 0.56598 45.4398 1.26415V29.0755C45.4398 29.7736 45.8916 30.3396 46.449 30.3396C47.0063 30.3396 47.4581 29.7736 47.4581 29.0755V1.26415Z" fill="url(#paint8_linear_71_147)"/>
<path d="M47.4581 1.26415C47.4581 0.56598 47.0063 0 46.449 0C45.8916 0 45.4398 0.56598 45.4398 1.26415V29.0755C45.4398 29.7736 45.8916 30.3396 46.449 30.3396C47.0063 30.3396 47.4581 29.7736 47.4581 29.0755V1.26415Z" fill="url(#paint9_linear_71_147)"/>
<path d="M47.4581 1.26415C47.4581 0.56598 47.0063 0 46.449 0C45.8916 0 45.4398 0.56598 45.4398 1.26415V29.0755C45.4398 29.7736 45.8916 30.3396 46.449 30.3396C47.0063 30.3396 47.4581 29.7736 47.4581 29.0755V1.26415Z" fill="url(#paint10_linear_71_147)"/>
<path d="M67.6414 11.3774C67.6414 10.6792 67.1896 10.1132 66.6322 10.1132C66.0749 10.1132 65.623 10.6792 65.623 11.3774V29.0755C65.623 29.7737 66.0749 30.3396 66.6322 30.3396C67.1896 30.3396 67.6414 29.7737 67.6414 29.0755V11.3774Z" fill="url(#paint11_linear_71_147)"/>
<path d="M67.6414 11.3774C67.6414 10.6792 67.1896 10.1132 66.6322 10.1132C66.0749 10.1132 65.623 10.6792 65.623 11.3774V29.0755C65.623 29.7737 66.0749 30.3396 66.6322 30.3396C67.1896 30.3396 67.6414 29.7737 67.6414 29.0755V11.3774Z" fill="url(#paint12_linear_71_147)"/>
<path d="M67.6414 11.3774C67.6414 10.6792 67.1896 10.1132 66.6322 10.1132C66.0749 10.1132 65.623 10.6792 65.623 11.3774V29.0755C65.623 29.7737 66.0749 30.3396 66.6322 30.3396C67.1896 30.3396 67.6414 29.7737 67.6414 29.0755V11.3774Z" fill="url(#paint13_linear_71_147)"/>
<path d="M87.8246 1.26415C87.8246 0.56598 87.3728 0 86.8154 0C86.2581 0 85.8063 0.56598 85.8063 1.26415V29.0755C85.8063 29.7736 86.2581 30.3396 86.8154 30.3396C87.3728 30.3396 87.8246 29.7736 87.8246 29.0755V1.26415Z" fill="url(#paint14_linear_71_147)"/>
<path d="M87.8246 1.26415C87.8246 0.56598 87.3728 0 86.8154 0C86.2581 0 85.8063 0.56598 85.8063 1.26415V29.0755C85.8063 29.7736 86.2581 30.3396 86.8154 30.3396C87.3728 30.3396 87.8246 29.7736 87.8246 29.0755V1.26415Z" fill="url(#paint15_linear_71_147)"/>
<path d="M87.8246 1.26415C87.8246 0.56598 87.3728 0 86.8154 0C86.2581 0 85.8063 0.56598 85.8063 1.26415V29.0755C85.8063 29.7736 86.2581 30.3396 86.8154 30.3396C87.3728 30.3396 87.8246 29.7736 87.8246 29.0755V1.26415Z" fill="url(#paint16_linear_71_147)"/>
<path d="M108.008 11.3774C108.008 10.6792 107.556 10.1132 106.999 10.1132C106.441 10.1132 105.99 10.6792 105.99 11.3774V29.0755C105.99 29.7737 106.441 30.3396 106.999 30.3396C107.556 30.3396 108.008 29.7737 108.008 29.0755V11.3774Z" fill="url(#paint17_linear_71_147)"/>
<path d="M108.008 11.3774C108.008 10.6792 107.556 10.1132 106.999 10.1132C106.441 10.1132 105.99 10.6792 105.99 11.3774V29.0755C105.99 29.7737 106.441 30.3396 106.999 30.3396C107.556 30.3396 108.008 29.7737 108.008 29.0755V11.3774Z" fill="url(#paint18_linear_71_147)"/>
<path d="M108.008 11.3774C108.008 10.6792 107.556 10.1132 106.999 10.1132C106.441 10.1132 105.99 10.6792 105.99 11.3774V29.0755C105.99 29.7737 106.441 30.3396 106.999 30.3396C107.556 30.3396 108.008 29.7737 108.008 29.0755V11.3774Z" fill="url(#paint19_linear_71_147)"/>
<path d="M128.191 1.26415C128.191 0.56598 127.739 0 127.182 0C126.625 0 126.173 0.56598 126.173 1.26415V29.0755C126.173 29.7736 126.625 30.3396 127.182 30.3396C127.739 30.3396 128.191 29.7736 128.191 29.0755V1.26415Z" fill="url(#paint20_linear_71_147)"/>
<path d="M128.191 1.26415C128.191 0.56598 127.739 0 127.182 0C126.625 0 126.173 0.56598 126.173 1.26415V29.0755C126.173 29.7736 126.625 30.3396 127.182 30.3396C127.739 30.3396 128.191 29.7736 128.191 29.0755V1.26415Z" fill="url(#paint21_linear_71_147)"/>
<path d="M128.191 1.26415C128.191 0.56598 127.739 0 127.182 0C126.625 0 126.173 0.56598 126.173 1.26415V29.0755C126.173 29.7736 126.625 30.3396 127.182 30.3396C127.739 30.3396 128.191 29.7736 128.191 29.0755V1.26415Z" fill="url(#paint22_linear_71_147)"/>
<path d="M148.374 11.3774C148.374 10.6792 147.923 10.1132 147.365 10.1132C146.808 10.1132 146.356 10.6792 146.356 11.3774V29.0755C146.356 29.7737 146.808 30.3396 147.365 30.3396C147.923 30.3396 148.374 29.7737 148.374 29.0755V11.3774Z" fill="url(#paint23_linear_71_147)"/>
<path d="M148.374 11.3774C148.374 10.6792 147.923 10.1132 147.365 10.1132C146.808 10.1132 146.356 10.6792 146.356 11.3774V29.0755C146.356 29.7737 146.808 30.3396 147.365 30.3396C147.923 30.3396 148.374 29.7737 148.374 29.0755V11.3774Z" fill="url(#paint24_linear_71_147)"/>
<path d="M148.374 11.3774C148.374 10.6792 147.923 10.1132 147.365 10.1132C146.808 10.1132 146.356 10.6792 146.356 11.3774V29.0755C146.356 29.7737 146.808 30.3396 147.365 30.3396C147.923 30.3396 148.374 29.7737 148.374 29.0755V11.3774Z" fill="url(#paint25_linear_71_147)"/>
<path d="M168.558 1.26415C168.558 0.56598 168.106 0 167.548 0C166.991 0 166.539 0.56598 166.539 1.26415V29.0755C166.539 29.7736 166.991 30.3396 167.548 30.3396C168.106 30.3396 168.558 29.7736 168.558 29.0755V1.26415Z" fill="url(#paint26_linear_71_147)"/>
<path d="M168.558 1.26415C168.558 0.56598 168.106 0 167.548 0C166.991 0 166.539 0.56598 166.539 1.26415V29.0755C166.539 29.7736 166.991 30.3396 167.548 30.3396C168.106 30.3396 168.558 29.7736 168.558 29.0755V1.26415Z" fill="url(#paint27_linear_71_147)"/>
<path d="M168.558 1.26415C168.558 0.56598 168.106 0 167.548 0C166.991 0 166.539 0.56598 166.539 1.26415V29.0755C166.539 29.7736 166.991 30.3396 167.548 30.3396C168.106 30.3396 168.558 29.7736 168.558 29.0755V1.26415Z" fill="url(#paint28_linear_71_147)"/>
<path d="M188.741 11.3774C188.741 10.6792 188.289 10.1132 187.732 10.1132C187.174 10.1132 186.723 10.6792 186.723 11.3774V29.0755C186.723 29.7737 187.174 30.3396 187.732 30.3396C188.289 30.3396 188.741 29.7737 188.741 29.0755V11.3774Z" fill="url(#paint29_linear_71_147)"/>
<path d="M188.741 11.3774C188.741 10.6792 188.289 10.1132 187.732 10.1132C187.174 10.1132 186.723 10.6792 186.723 11.3774V29.0755C186.723 29.7737 187.174 30.3396 187.732 30.3396C188.289 30.3396 188.741 29.7737 188.741 29.0755V11.3774Z" fill="url(#paint30_linear_71_147)"/>
<path d="M188.741 11.3774C188.741 10.6792 188.289 10.1132 187.732 10.1132C187.174 10.1132 186.723 10.6792 186.723 11.3774V29.0755C186.723 29.7737 187.174 30.3396 187.732 30.3396C188.289 30.3396 188.741 29.7737 188.741 29.0755V11.3774Z" fill="url(#paint31_linear_71_147)"/>
<path d="M208.924 1.26415C208.924 0.56598 208.472 0 207.915 0C207.358 0 206.906 0.56598 206.906 1.26415V29.0755C206.906 29.7736 207.358 30.3396 207.915 30.3396C208.472 30.3396 208.924 29.7736 208.924 29.0755V1.26415Z" fill="url(#paint32_linear_71_147)"/>
<path d="M208.924 1.26415C208.924 0.56598 208.472 0 207.915 0C207.358 0 206.906 0.56598 206.906 1.26415V29.0755C206.906 29.7736 207.358 30.3396 207.915 30.3396C208.472 30.3396 208.924 29.7736 208.924 29.0755V1.26415Z" fill="url(#paint33_linear_71_147)"/>
<path d="M208.924 1.26415C208.924 0.56598 208.472 0 207.915 0C207.358 0 206.906 0.56598 206.906 1.26415V29.0755C206.906 29.7736 207.358 30.3396 207.915 30.3396C208.472 30.3396 208.924 29.7736 208.924 29.0755V1.26415Z" fill="url(#paint34_linear_71_147)"/>
<path d="M229.107 11.3774C229.107 10.6792 228.656 10.1132 228.098 10.1132C227.541 10.1132 227.089 10.6792 227.089 11.3774V29.0755C227.089 29.7737 227.541 30.3396 228.098 30.3396C228.656 30.3396 229.107 29.7737 229.107 29.0755V11.3774Z" fill="url(#paint35_linear_71_147)"/>
<path d="M229.107 11.3774C229.107 10.6792 228.656 10.1132 228.098 10.1132C227.541 10.1132 227.089 10.6792 227.089 11.3774V29.0755C227.089 29.7737 227.541 30.3396 228.098 30.3396C228.656 30.3396 229.107 29.7737 229.107 29.0755V11.3774Z" fill="url(#paint36_linear_71_147)"/>
<path d="M229.107 11.3774C229.107 10.6792 228.656 10.1132 228.098 10.1132C227.541 10.1132 227.089 10.6792 227.089 11.3774V29.0755C227.089 29.7737 227.541 30.3396 228.098 30.3396C228.656 30.3396 229.107 29.7737 229.107 29.0755V11.3774Z" fill="url(#paint37_linear_71_147)"/>
<path d="M249.291 1.26415C249.291 0.56598 248.839 0 248.281 0C247.724 0 247.272 0.56598 247.272 1.26415V29.0755C247.272 29.7736 247.724 30.3396 248.281 30.3396C248.839 30.3396 249.291 29.7736 249.291 29.0755V1.26415Z" fill="url(#paint38_linear_71_147)"/>
<path d="M249.291 1.26415C249.291 0.56598 248.839 0 248.281 0C247.724 0 247.272 0.56598 247.272 1.26415V29.0755C247.272 29.7736 247.724 30.3396 248.281 30.3396C248.839 30.3396 249.291 29.7736 249.291 29.0755V1.26415Z" fill="url(#paint39_linear_71_147)"/>
<path d="M249.291 1.26415C249.291 0.56598 248.839 0 248.281 0C247.724 0 247.272 0.56598 247.272 1.26415V29.0755C247.272 29.7736 247.724 30.3396 248.281 30.3396C248.839 30.3396 249.291 29.7736 249.291 29.0755V1.26415Z" fill="url(#paint40_linear_71_147)"/>
<path d="M269.474 11.3774C269.474 10.6792 269.022 10.1132 268.465 10.1132C267.907 10.1132 267.456 10.6792 267.456 11.3774V29.0755C267.456 29.7737 267.907 30.3396 268.465 30.3396C269.022 30.3396 269.474 29.7737 269.474 29.0755V11.3774Z" fill="url(#paint41_linear_71_147)"/>
<path d="M269.474 11.3774C269.474 10.6792 269.022 10.1132 268.465 10.1132C267.907 10.1132 267.456 10.6792 267.456 11.3774V29.0755C267.456 29.7737 267.907 30.3396 268.465 30.3396C269.022 30.3396 269.474 29.7737 269.474 29.0755V11.3774Z" fill="url(#paint42_linear_71_147)"/>
<path d="M269.474 11.3774C269.474 10.6792 269.022 10.1132 268.465 10.1132C267.907 10.1132 267.456 10.6792 267.456 11.3774V29.0755C267.456 29.7737 267.907 30.3396 268.465 30.3396C269.022 30.3396 269.474 29.7737 269.474 29.0755V11.3774Z" fill="url(#paint43_linear_71_147)"/>
<path d="M289.657 1.26415C289.657 0.56598 289.205 0 288.648 0C288.09 0 287.639 0.56598 287.639 1.26415V29.0755C287.639 29.7736 288.09 30.3396 288.648 30.3396C289.205 30.3396 289.657 29.7736 289.657 29.0755V1.26415Z" fill="url(#paint44_linear_71_147)"/>
<path d="M289.657 1.26415C289.657 0.56598 289.205 0 288.648 0C288.09 0 287.639 0.56598 287.639 1.26415V29.0755C287.639 29.7736 288.09 30.3396 288.648 30.3396C289.205 30.3396 289.657 29.7736 289.657 29.0755V1.26415Z" fill="url(#paint45_linear_71_147)"/>
<path d="M289.657 1.26415C289.657 0.56598 289.205 0 288.648 0C288.09 0 287.639 0.56598 287.639 1.26415V29.0755C287.639 29.7736 288.09 30.3396 288.648 30.3396C289.205 30.3396 289.657 29.7736 289.657 29.0755V1.26415Z" fill="url(#paint46_linear_71_147)"/>
<path d="M309.84 11.3774C309.84 10.6792 309.389 10.1132 308.831 10.1132C308.274 10.1132 307.822 10.6792 307.822 11.3774V29.0755C307.822 29.7737 308.274 30.3396 308.831 30.3396C309.389 30.3396 309.84 29.7737 309.84 29.0755V11.3774Z" fill="url(#paint47_linear_71_147)"/>
<path d="M309.84 11.3774C309.84 10.6792 309.389 10.1132 308.831 10.1132C308.274 10.1132 307.822 10.6792 307.822 11.3774V29.0755C307.822 29.7737 308.274 30.3396 308.831 30.3396C309.389 30.3396 309.84 29.7737 309.84 29.0755V11.3774Z" fill="url(#paint48_linear_71_147)"/>
<path d="M309.84 11.3774C309.84 10.6792 309.389 10.1132 308.831 10.1132C308.274 10.1132 307.822 10.6792 307.822 11.3774V29.0755C307.822 29.7737 308.274 30.3396 308.831 30.3396C309.389 30.3396 309.84 29.7737 309.84 29.0755V11.3774Z" fill="url(#paint49_linear_71_147)"/>
<path d="M330.024 1.26415C330.024 0.56598 329.572 0 329.015 0C328.457 0 328.005 0.56598 328.005 1.26415V29.0755C328.005 29.7736 328.457 30.3396 329.015 30.3396C329.572 30.3396 330.024 29.7736 330.024 29.0755V1.26415Z" fill="url(#paint50_linear_71_147)"/>
<path d="M330.024 1.26415C330.024 0.56598 329.572 0 329.015 0C328.457 0 328.005 0.56598 328.005 1.26415V29.0755C328.005 29.7736 328.457 30.3396 329.015 30.3396C329.572 30.3396 330.024 29.7736 330.024 29.0755V1.26415Z" fill="url(#paint51_linear_71_147)"/>
<path d="M330.024 1.26415C330.024 0.56598 329.572 0 329.015 0C328.457 0 328.005 0.56598 328.005 1.26415V29.0755C328.005 29.7736 328.457 30.3396 329.015 30.3396C329.572 30.3396 330.024 29.7736 330.024 29.0755V1.26415Z" fill="url(#paint52_linear_71_147)"/>
<path d="M370.39 1.26415C370.39 0.56598 369.938 0 369.381 0C368.824 0 368.372 0.56598 368.372 1.26415V29.0755C368.372 29.7736 368.824 30.3396 369.381 30.3396C369.938 30.3396 370.39 29.7736 370.39 29.0755V1.26415Z" fill="url(#paint53_linear_71_147)"/>
<path d="M370.39 1.26415C370.39 0.56598 369.938 0 369.381 0C368.824 0 368.372 0.56598 368.372 1.26415V29.0755C368.372 29.7736 368.824 30.3396 369.381 30.3396C369.938 30.3396 370.39 29.7736 370.39 29.0755V1.26415Z" fill="url(#paint54_linear_71_147)"/>
<path d="M370.39 1.26415C370.39 0.56598 369.938 0 369.381 0C368.824 0 368.372 0.56598 368.372 1.26415V29.0755C368.372 29.7736 368.824 30.3396 369.381 30.3396C369.938 30.3396 370.39 29.7736 370.39 29.0755V1.26415Z" fill="url(#paint55_linear_71_147)"/>
<path d="M350.207 11.3774C350.207 10.6792 349.755 10.1132 349.198 10.1132C348.64 10.1132 348.188 10.6792 348.188 11.3774V29.0755C348.188 29.7737 348.64 30.3396 349.198 30.3396C349.755 30.3396 350.207 29.7737 350.207 29.0755V11.3774Z" fill="url(#paint56_linear_71_147)"/>
<path d="M350.207 11.3774C350.207 10.6792 349.755 10.1132 349.198 10.1132C348.64 10.1132 348.188 10.6792 348.188 11.3774V29.0755C348.188 29.7737 348.64 30.3396 349.198 30.3396C349.755 30.3396 350.207 29.7737 350.207 29.0755V11.3774Z" fill="url(#paint57_linear_71_147)"/>
<path d="M350.207 11.3774C350.207 10.6792 349.755 10.1132 349.198 10.1132C348.64 10.1132 348.188 10.6792 348.188 11.3774V29.0755C348.188 29.7737 348.64 30.3396 349.198 30.3396C349.755 30.3396 350.207 29.7737 350.207 29.0755V11.3774Z" fill="url(#paint58_linear_71_147)"/>
<path d="M380.482 20.2264H-3V22.7547H380.482V20.2264Z" fill="url(#paint59_linear_71_147)"/>
<path d="M380.482 10.1132H-3V12.6415H380.482V10.1132Z" fill="url(#paint60_linear_71_147)"/>
<path d="M390.573 1.26415C390.573 0.56598 390.121 0 389.564 0C389.007 0 388.555 0.56598 388.555 1.26415V29.0755C388.555 29.7736 389.007 30.3396 389.564 30.3396C390.121 30.3396 390.573 29.7736 390.573 29.0755V1.26415Z" fill="url(#paint61_linear_71_147)"/>
<path d="M390.573 1.26415C390.573 0.56598 390.121 0 389.564 0C389.007 0 388.555 0.56598 388.555 1.26415V29.0755C388.555 29.7736 389.007 30.3396 389.564 30.3396C390.121 30.3396 390.573 29.7736 390.573 29.0755V1.26415Z" fill="url(#paint62_linear_71_147)"/>
<path d="M390.573 1.26415C390.573 0.56598 390.121 0 389.564 0C389.007 0 388.555 0.56598 388.555 1.26415V29.0755C388.555 29.7736 389.007 30.3396 389.564 30.3396C390.121 30.3396 390.573 29.7736 390.573 29.0755V1.26415Z" fill="url(#paint63_linear_71_147)"/>
<path d="M410.757 12.6415C410.757 11.9434 410.305 11.3774 409.747 11.3774C409.19 11.3774 408.738 11.9434 408.738 12.6415V29.0755C408.738 29.7737 409.19 30.3396 409.747 30.3396C410.305 30.3396 410.757 29.7737 410.757 29.0755V12.6415Z" fill="url(#paint64_linear_71_147)"/>
<path d="M410.757 12.6415C410.757 11.9434 410.305 11.3774 409.747 11.3774C409.19 11.3774 408.738 11.9434 408.738 12.6415V29.0755C408.738 29.7737 409.19 30.3396 409.747 30.3396C410.305 30.3396 410.757 29.7737 410.757 29.0755V12.6415Z" fill="url(#paint65_linear_71_147)"/>
<path d="M410.757 12.6415C410.757 11.9434 410.305 11.3774 409.747 11.3774C409.19 11.3774 408.738 11.9434 408.738 12.6415V29.0755C408.738 29.7737 409.19 30.3396 409.747 30.3396C410.305 30.3396 410.757 29.7737 410.757 29.0755V12.6415Z" fill="url(#paint66_linear_71_147)"/>
<path d="M430.94 1.26415C430.94 0.56598 430.488 0 429.931 0C429.373 0 428.921 0.56598 428.921 1.26415V29.0755C428.921 29.7736 429.373 30.3396 429.931 30.3396C430.488 30.3396 430.94 29.7736 430.94 29.0755V1.26415Z" fill="url(#paint67_linear_71_147)"/>
<path d="M430.94 1.26415C430.94 0.56598 430.488 0 429.931 0C429.373 0 428.921 0.56598 428.921 1.26415V29.0755C428.921 29.7736 429.373 30.3396 429.931 30.3396C430.488 30.3396 430.94 29.7736 430.94 29.0755V1.26415Z" fill="url(#paint68_linear_71_147)"/>
<path d="M430.94 1.26415C430.94 0.56598 430.488 0 429.931 0C429.373 0 428.921 0.56598 428.921 1.26415V29.0755C428.921 29.7736 429.373 30.3396 429.931 30.3396C430.488 30.3396 430.94 29.7736 430.94 29.0755V1.26415Z" fill="url(#paint69_linear_71_147)"/>
<path d="M451.123 11.3774C451.123 10.6792 450.671 10.1132 450.114 10.1132C449.557 10.1132 449.105 10.6792 449.105 11.3774V29.0755C449.105 29.7737 449.557 30.3396 450.114 30.3396C450.671 30.3396 451.123 29.7737 451.123 29.0755V11.3774Z" fill="url(#paint70_linear_71_147)"/>
<path d="M451.123 11.3774C451.123 10.6792 450.671 10.1132 450.114 10.1132C449.557 10.1132 449.105 10.6792 449.105 11.3774V29.0755C449.105 29.7737 449.557 30.3396 450.114 30.3396C450.671 30.3396 451.123 29.7737 451.123 29.0755V11.3774Z" fill="url(#paint71_linear_71_147)"/>
<path d="M451.123 11.3774C451.123 10.6792 450.671 10.1132 450.114 10.1132C449.557 10.1132 449.105 10.6792 449.105 11.3774V29.0755C449.105 29.7737 449.557 30.3396 450.114 30.3396C450.671 30.3396 451.123 29.7737 451.123 29.0755V11.3774Z" fill="url(#paint72_linear_71_147)"/>
<path d="M471.306 1.26415C471.306 0.56598 470.855 0 470.297 0C469.74 0 469.288 0.56598 469.288 1.26415V29.0755C469.288 29.7736 469.74 30.3396 470.297 30.3396C470.855 30.3396 471.306 29.7736 471.306 29.0755V1.26415Z" fill="url(#paint73_linear_71_147)"/>
<path d="M471.306 1.26415C471.306 0.56598 470.855 0 470.297 0C469.74 0 469.288 0.56598 469.288 1.26415V29.0755C469.288 29.7736 469.74 30.3396 470.297 30.3396C470.855 30.3396 471.306 29.7736 471.306 29.0755V1.26415Z" fill="url(#paint74_linear_71_147)"/>
<path d="M471.306 1.26415C471.306 0.56598 470.855 0 470.297 0C469.74 0 469.288 0.56598 469.288 1.26415V29.0755C469.288 29.7736 469.74 30.3396 470.297 30.3396C470.855 30.3396 471.306 29.7736 471.306 29.0755V1.26415Z" fill="url(#paint75_linear_71_147)"/>
<path d="M491.49 11.3774C491.49 10.6792 491.038 10.1132 490.48 10.1132C489.923 10.1132 489.471 10.6792 489.471 11.3774V29.0755C489.471 29.7737 489.923 30.3396 490.48 30.3396C491.038 30.3396 491.49 29.7737 491.49 29.0755V11.3774Z" fill="url(#paint76_linear_71_147)"/>
<path d="M491.49 11.3774C491.49 10.6792 491.038 10.1132 490.48 10.1132C489.923 10.1132 489.471 10.6792 489.471 11.3774V29.0755C489.471 29.7737 489.923 30.3396 490.48 30.3396C491.038 30.3396 491.49 29.7737 491.49 29.0755V11.3774Z" fill="url(#paint77_linear_71_147)"/>
<path d="M491.49 11.3774C491.49 10.6792 491.038 10.1132 490.48 10.1132C489.923 10.1132 489.471 10.6792 489.471 11.3774V29.0755C489.471 29.7737 489.923 30.3396 490.48 30.3396C491.038 30.3396 491.49 29.7737 491.49 29.0755V11.3774Z" fill="url(#paint78_linear_71_147)"/>
<path d="M511.673 1.26415C511.673 0.56598 511.221 0 510.664 0C510.106 0 509.655 0.56598 509.655 1.26415V29.0755C509.655 29.7736 510.106 30.3396 510.664 30.3396C511.221 30.3396 511.673 29.7736 511.673 29.0755V1.26415Z" fill="url(#paint79_linear_71_147)"/>
<path d="M511.673 1.26415C511.673 0.56598 511.221 0 510.664 0C510.106 0 509.655 0.56598 509.655 1.26415V29.0755C509.655 29.7736 510.106 30.3396 510.664 30.3396C511.221 30.3396 511.673 29.7736 511.673 29.0755V1.26415Z" fill="url(#paint80_linear_71_147)"/>
<path d="M511.673 1.26415C511.673 0.56598 511.221 0 510.664 0C510.106 0 509.655 0.56598 509.655 1.26415V29.0755C509.655 29.7736 510.106 30.3396 510.664 30.3396C511.221 30.3396 511.673 29.7736 511.673 29.0755V1.26415Z" fill="url(#paint81_linear_71_147)"/>
<path d="M531.856 11.3774C531.856 10.6792 531.404 10.1132 530.847 10.1132C530.289 10.1132 529.838 10.6792 529.838 11.3774V29.0755C529.838 29.7737 530.289 30.3396 530.847 30.3396C531.404 30.3396 531.856 29.7737 531.856 29.0755V11.3774Z" fill="url(#paint82_linear_71_147)"/>
<path d="M531.856 11.3774C531.856 10.6792 531.404 10.1132 530.847 10.1132C530.289 10.1132 529.838 10.6792 529.838 11.3774V29.0755C529.838 29.7737 530.289 30.3396 530.847 30.3396C531.404 30.3396 531.856 29.7737 531.856 29.0755V11.3774Z" fill="url(#paint83_linear_71_147)"/>
<path d="M531.856 11.3774C531.856 10.6792 531.404 10.1132 530.847 10.1132C530.289 10.1132 529.838 10.6792 529.838 11.3774V29.0755C529.838 29.7737 530.289 30.3396 530.847 30.3396C531.404 30.3396 531.856 29.7737 531.856 29.0755V11.3774Z" fill="url(#paint84_linear_71_147)"/>
<path d="M552.039 1.26415C552.039 0.56598 551.588 0 551.03 0C550.473 0 550.021 0.56598 550.021 1.26415V29.0755C550.021 29.7736 550.473 30.3396 551.03 30.3396C551.588 30.3396 552.039 29.7736 552.039 29.0755V1.26415Z" fill="url(#paint85_linear_71_147)"/>
<path d="M552.039 1.26415C552.039 0.56598 551.588 0 551.03 0C550.473 0 550.021 0.56598 550.021 1.26415V29.0755C550.021 29.7736 550.473 30.3396 551.03 30.3396C551.588 30.3396 552.039 29.7736 552.039 29.0755V1.26415Z" fill="url(#paint86_linear_71_147)"/>
<path d="M552.039 1.26415C552.039 0.56598 551.588 0 551.03 0C550.473 0 550.021 0.56598 550.021 1.26415V29.0755C550.021 29.7736 550.473 30.3396 551.03 30.3396C551.588 30.3396 552.039 29.7736 552.039 29.0755V1.26415Z" fill="url(#paint87_linear_71_147)"/>
<path d="M572.222 11.3774C572.222 10.6792 571.771 10.1132 571.213 10.1132C570.656 10.1132 570.204 10.6792 570.204 11.3774V29.0755C570.204 29.7737 570.656 30.3396 571.213 30.3396C571.771 30.3396 572.222 29.7737 572.222 29.0755V11.3774Z" fill="url(#paint88_linear_71_147)"/>
<path d="M572.222 11.3774C572.222 10.6792 571.771 10.1132 571.213 10.1132C570.656 10.1132 570.204 10.6792 570.204 11.3774V29.0755C570.204 29.7737 570.656 30.3396 571.213 30.3396C571.771 30.3396 572.222 29.7737 572.222 29.0755V11.3774Z" fill="url(#paint89_linear_71_147)"/>
<path d="M572.222 11.3774C572.222 10.6792 571.771 10.1132 571.213 10.1132C570.656 10.1132 570.204 10.6792 570.204 11.3774V29.0755C570.204 29.7737 570.656 30.3396 571.213 30.3396C571.771 30.3396 572.222 29.7737 572.222 29.0755V11.3774Z" fill="url(#paint90_linear_71_147)"/>
<path d="M592.406 1.26415C592.406 0.56598 591.954 0 591.397 0C590.839 0 590.387 0.56598 590.387 1.26415V29.0755C590.387 29.7736 590.839 30.3396 591.397 30.3396C591.954 30.3396 592.406 29.7736 592.406 29.0755V1.26415Z" fill="url(#paint91_linear_71_147)"/>
<path d="M592.406 1.26415C592.406 0.56598 591.954 0 591.397 0C590.839 0 590.387 0.56598 590.387 1.26415V29.0755C590.387 29.7736 590.839 30.3396 591.397 30.3396C591.954 30.3396 592.406 29.7736 592.406 29.0755V1.26415Z" fill="url(#paint92_linear_71_147)"/>
<path d="M592.406 1.26415C592.406 0.56598 591.954 0 591.397 0C590.839 0 590.387 0.56598 590.387 1.26415V29.0755C590.387 29.7736 590.839 30.3396 591.397 30.3396C591.954 30.3396 592.406 29.7736 592.406 29.0755V1.26415Z" fill="url(#paint93_linear_71_147)"/>
<path d="M612.589 11.3774C612.589 10.6792 612.137 10.1132 611.58 10.1132C611.023 10.1132 610.571 10.6792 610.571 11.3774V29.0755C610.571 29.7737 611.023 30.3396 611.58 30.3396C612.137 30.3396 612.589 29.7737 612.589 29.0755V11.3774Z" fill="url(#paint94_linear_71_147)"/>
<path d="M612.589 11.3774C612.589 10.6792 612.137 10.1132 611.58 10.1132C611.023 10.1132 610.571 10.6792 610.571 11.3774V29.0755C610.571 29.7737 611.023 30.3396 611.58 30.3396C612.137 30.3396 612.589 29.7737 612.589 29.0755V11.3774Z" fill="url(#paint95_linear_71_147)"/>
<path d="M612.589 11.3774C612.589 10.6792 612.137 10.1132 611.58 10.1132C611.023 10.1132 610.571 10.6792 610.571 11.3774V29.0755C610.571 29.7737 611.023 30.3396 611.58 30.3396C612.137 30.3396 612.589 29.7737 612.589 29.0755V11.3774Z" fill="url(#paint96_linear_71_147)"/>
<path d="M632.772 1.26415C632.772 0.56598 632.32 0 631.763 0C631.206 0 630.754 0.56598 630.754 1.26415V29.0755C630.754 29.7736 631.206 30.3396 631.763 30.3396C632.32 30.3396 632.772 29.7736 632.772 29.0755V1.26415Z" fill="url(#paint97_linear_71_147)"/>
<path d="M632.772 1.26415C632.772 0.56598 632.32 0 631.763 0C631.206 0 630.754 0.56598 630.754 1.26415V29.0755C630.754 29.7736 631.206 30.3396 631.763 30.3396C632.32 30.3396 632.772 29.7736 632.772 29.0755V1.26415Z" fill="url(#paint98_linear_71_147)"/>
<path d="M632.772 1.26415C632.772 0.56598 632.32 0 631.763 0C631.206 0 630.754 0.56598 630.754 1.26415V29.0755C630.754 29.7736 631.206 30.3396 631.763 30.3396C632.32 30.3396 632.772 29.7736 632.772 29.0755V1.26415Z" fill="url(#paint99_linear_71_147)"/>
<path d="M652.956 11.3774C652.956 10.6792 652.504 10.1132 651.946 10.1132C651.389 10.1132 650.937 10.6792 650.937 11.3774V29.0755C650.937 29.7737 651.389 30.3396 651.946 30.3396C652.504 30.3396 652.956 29.7737 652.956 29.0755V11.3774Z" fill="url(#paint100_linear_71_147)"/>
<path d="M652.956 11.3774C652.956 10.6792 652.504 10.1132 651.946 10.1132C651.389 10.1132 650.937 10.6792 650.937 11.3774V29.0755C650.937 29.7737 651.389 30.3396 651.946 30.3396C652.504 30.3396 652.956 29.7737 652.956 29.0755V11.3774Z" fill="url(#paint101_linear_71_147)"/>
<path d="M652.956 11.3774C652.956 10.6792 652.504 10.1132 651.946 10.1132C651.389 10.1132 650.937 10.6792 650.937 11.3774V29.0755C650.937 29.7737 651.389 30.3396 651.946 30.3396C652.504 30.3396 652.956 29.7737 652.956 29.0755V11.3774Z" fill="url(#paint102_linear_71_147)"/>
<path d="M673.139 1.26415C673.139 0.56598 672.687 0 672.13 0C671.572 0 671.12 0.56598 671.12 1.26415V29.0755C671.12 29.7736 671.572 30.3396 672.13 30.3396C672.687 30.3396 673.139 29.7736 673.139 29.0755V1.26415Z" fill="url(#paint103_linear_71_147)"/>
<path d="M673.139 1.26415C673.139 0.56598 672.687 0 672.13 0C671.572 0 671.12 0.56598 671.12 1.26415V29.0755C671.12 29.7736 671.572 30.3396 672.13 30.3396C672.687 30.3396 673.139 29.7736 673.139 29.0755V1.26415Z" fill="url(#paint104_linear_71_147)"/>
<path d="M673.139 1.26415C673.139 0.56598 672.687 0 672.13 0C671.572 0 671.12 0.56598 671.12 1.26415V29.0755C671.12 29.7736 671.572 30.3396 672.13 30.3396C672.687 30.3396 673.139 29.7736 673.139 29.0755V1.26415Z" fill="url(#paint105_linear_71_147)"/>
<path d="M693.322 11.3774C693.322 10.6792 692.87 10.1132 692.313 10.1132C691.756 10.1132 691.304 10.6792 691.304 11.3774V29.0755C691.304 29.7737 691.756 30.3396 692.313 30.3396C692.87 30.3396 693.322 29.7737 693.322 29.0755V11.3774Z" fill="url(#paint106_linear_71_147)"/>
<path d="M693.322 11.3774C693.322 10.6792 692.87 10.1132 692.313 10.1132C691.756 10.1132 691.304 10.6792 691.304 11.3774V29.0755C691.304 29.7737 691.756 30.3396 692.313 30.3396C692.87 30.3396 693.322 29.7737 693.322 29.0755V11.3774Z" fill="url(#paint107_linear_71_147)"/>
<path d="M693.322 11.3774C693.322 10.6792 692.87 10.1132 692.313 10.1132C691.756 10.1132 691.304 10.6792 691.304 11.3774V29.0755C691.304 29.7737 691.756 30.3396 692.313 30.3396C692.87 30.3396 693.322 29.7737 693.322 29.0755V11.3774Z" fill="url(#paint108_linear_71_147)"/>
<path d="M713.505 1.26415C713.505 0.56598 713.053 0 712.496 0C711.939 0 711.487 0.56598 711.487 1.26415V29.0755C711.487 29.7736 711.939 30.3396 712.496 30.3396C713.053 30.3396 713.505 29.7736 713.505 29.0755V1.26415Z" fill="url(#paint109_linear_71_147)"/>
<path d="M713.505 1.26415C713.505 0.56598 713.053 0 712.496 0C711.939 0 711.487 0.56598 711.487 1.26415V29.0755C711.487 29.7736 711.939 30.3396 712.496 30.3396C713.053 30.3396 713.505 29.7736 713.505 29.0755V1.26415Z" fill="url(#paint110_linear_71_147)"/>
<path d="M713.505 1.26415C713.505 0.56598 713.053 0 712.496 0C711.939 0 711.487 0.56598 711.487 1.26415V29.0755C711.487 29.7736 711.939 30.3396 712.496 30.3396C713.053 30.3396 713.505 29.7736 713.505 29.0755V1.26415Z" fill="url(#paint111_linear_71_147)"/>
<path d="M753.872 1.26415C753.872 0.56598 753.42 0 752.863 0C752.305 0 751.854 0.56598 751.854 1.26415V29.0755C751.854 29.7736 752.305 30.3396 752.863 30.3396C753.42 30.3396 753.872 29.7736 753.872 29.0755V1.26415Z" fill="url(#paint112_linear_71_147)"/>
<path d="M753.872 1.26415C753.872 0.56598 753.42 0 752.863 0C752.305 0 751.854 0.56598 751.854 1.26415V29.0755C751.854 29.7736 752.305 30.3396 752.863 30.3396C753.42 30.3396 753.872 29.7736 753.872 29.0755V1.26415Z" fill="url(#paint113_linear_71_147)"/>
<path d="M753.872 1.26415C753.872 0.56598 753.42 0 752.863 0C752.305 0 751.854 0.56598 751.854 1.26415V29.0755C751.854 29.7736 752.305 30.3396 752.863 30.3396C753.42 30.3396 753.872 29.7736 753.872 29.0755V1.26415Z" fill="url(#paint114_linear_71_147)"/>
<path d="M733.688 11.3774C733.688 10.6792 733.237 10.1132 732.679 10.1132C732.122 10.1132 731.67 10.6792 731.67 11.3774V29.0755C731.67 29.7737 732.122 30.3396 732.679 30.3396C733.237 30.3396 733.688 29.7737 733.688 29.0755V11.3774Z" fill="url(#paint115_linear_71_147)"/>
<path d="M733.688 11.3774C733.688 10.6792 733.237 10.1132 732.679 10.1132C732.122 10.1132 731.67 10.6792 731.67 11.3774V29.0755C731.67 29.7737 732.122 30.3396 732.679 30.3396C733.237 30.3396 733.688 29.7737 733.688 29.0755V11.3774Z" fill="url(#paint116_linear_71_147)"/>
<path d="M733.688 11.3774C733.688 10.6792 733.237 10.1132 732.679 10.1132C732.122 10.1132 731.67 10.6792 731.67 11.3774V29.0755C731.67 29.7737 732.122 30.3396 732.679 30.3396C733.237 30.3396 733.688 29.7737 733.688 29.0755V11.3774Z" fill="url(#paint117_linear_71_147)"/>
<path d="M763.963 20.2264H380.482V22.7547H763.963V20.2264Z" fill="url(#paint118_linear_71_147)"/>
<path d="M763.963 10.1132H380.482V12.6415H763.963V10.1132Z" fill="url(#paint119_linear_71_147)"/>
</g>
<defs>
<linearGradient id="paint0_linear_71_147" x1="-3" y1="48" x2="380" y2="48" gradientUnits="userSpaceOnUse">
<stop offset="0.0001"/>
</linearGradient>
<linearGradient id="paint1_linear_71_147" x1="380" y1="48" x2="761" y2="48" gradientUnits="userSpaceOnUse">
<stop offset="0.0001"/>
</linearGradient>
<linearGradient id="paint2_linear_71_147" x1="6.0824" y1="0" x2="6.0824" y2="30.3396" gradientUnits="userSpaceOnUse">
<stop stop-color="#42250D"/>
<stop offset="1" stop-color="#BF8A5B"/>
</linearGradient>
<linearGradient id="paint3_linear_71_147" x1="6.0824" y1="0" x2="6.0824" y2="30.3396" gradientUnits="userSpaceOnUse">
<stop stop-color="#42250D"/>
<stop offset="1" stop-color="#BF8A5B"/>
</linearGradient>
<linearGradient id="paint4_linear_71_147" x1="6.0824" y1="0" x2="6.0824" y2="30.3396" gradientUnits="userSpaceOnUse">
<stop stop-color="#42250D"/>
<stop offset="1" stop-color="#BF8A5B"/>
</linearGradient>
<linearGradient id="paint5_linear_71_147" x1="26.2658" y1="11.3774" x2="26.2658" y2="30.3396" gradientUnits="userSpaceOnUse">
<stop stop-color="#42250D"/>
<stop offset="1" stop-color="#BF8A5B"/>
</linearGradient>
<linearGradient id="paint6_linear_71_147" x1="26.2658" y1="11.3774" x2="26.2658" y2="30.3396" gradientUnits="userSpaceOnUse">
<stop stop-color="#42250D"/>
<stop offset="1" stop-color="#BF8A5B"/>
</linearGradient>
<linearGradient id="paint7_linear_71_147" x1="26.2658" y1="11.3774" x2="26.2658" y2="30.3396" gradientUnits="userSpaceOnUse">
<stop stop-color="#42250D"/>
<stop offset="1" stop-color="#BF8A5B"/>
</linearGradient>
<linearGradient id="paint8_linear_71_147" x1="46.449" y1="0" x2="46.449" y2="30.3396" gradientUnits="userSpaceOnUse">
<stop stop-color="#42250D"/>
<stop offset="1" stop-color="#BF8A5B"/>
</linearGradient>
<linearGradient id="paint9_linear_71_147" x1="46.449" y1="0" x2="46.449" y2="30.3396" gradientUnits="userSpaceOnUse">
<stop stop-color="#42250D"/>
<stop offset="1" stop-color="#BF8A5B"/>
</linearGradient>
<linearGradient id="paint10_linear_71_147" x1="46.449" y1="0" x2="46.449" y2="30.3396" gradientUnits="userSpaceOnUse">
<stop stop-color="#42250D"/>
<stop offset="1" stop-color="#BF8A5B"/>
</linearGradient>
<linearGradient id="paint11_linear_71_147" x1="66.6322" y1="10.1132" x2="66.6322" y2="30.3396" gradientUnits="userSpaceOnUse">
<stop stop-color="#42250D"/>
<stop offset="1" stop-color="#BF8A5B"/>
</linearGradient>
<linearGradient id="paint12_linear_71_147" x1="66.6322" y1="10.1132" x2="66.6322" y2="30.3396" gradientUnits="userSpaceOnUse">
<stop stop-color="#42250D"/>
<stop offset="1" stop-color="#BF8A5B"/>
</linearGradient>
<linearGradient id="paint13_linear_71_147" x1="66.6322" y1="10.1132" x2="66.6322" y2="30.3396" gradientUnits="userSpaceOnUse">
<stop stop-color="#42250D"/>
<stop offset="1" stop-color="#BF8A5B"/>
</linearGradient>
<linearGradient id="paint14_linear_71_147" x1="86.8154" y1="0" x2="86.8154" y2="30.3396" gradientUnits="userSpaceOnUse">
<stop stop-color="#42250D"/>
<stop offset="1" stop-color="#BF8A5B"/>
</linearGradient>
<linearGradient id="paint15_linear_71_147" x1="86.8154" y1="0" x2="86.8154" y2="30.3396" gradientUnits="userSpaceOnUse">
<stop stop-color="#42250D"/>
<stop offset="1" stop-color="#BF8A5B"/>
</linearGradient>
<linearGradient id="paint16_linear_71_147" x1="86.8154" y1="0" x2="86.8154" y2="30.3396" gradientUnits="userSpaceOnUse">
<stop stop-color="#42250D"/>
<stop offset="1" stop-color="#BF8A5B"/>
</linearGradient>
<linearGradient id="paint17_linear_71_147" x1="106.999" y1="10.1132" x2="106.999" y2="30.3396" gradientUnits="userSpaceOnUse">
<stop stop-color="#42250D"/>
<stop offset="1" stop-color="#BF8A5B"/>
</linearGradient>
<linearGradient id="paint18_linear_71_147" x1="106.999" y1="10.1132" x2="106.999" y2="30.3396" gradientUnits="userSpaceOnUse">
<stop stop-color="#42250D"/>
<stop offset="1" stop-color="#BF8A5B"/>
</linearGradient>
<linearGradient id="paint19_linear_71_147" x1="106.999" y1="10.1132" x2="106.999" y2="30.3396" gradientUnits="userSpaceOnUse">
<stop stop-color="#42250D"/>
<stop offset="1" stop-color="#BF8A5B"/>
</linearGradient>
<linearGradient id="paint20_linear_71_147" x1="127.182" y1="0" x2="127.182" y2="30.3396" gradientUnits="userSpaceOnUse">
<stop stop-color="#42250D"/>
<stop offset="1" stop-color="#BF8A5B"/>
</linearGradient>
<linearGradient id="paint21_linear_71_147" x1="127.182" y1="0" x2="127.182" y2="30.3396" gradientUnits="userSpaceOnUse">
<stop stop-color="#42250D"/>
<stop offset="1" stop-color="#BF8A5B"/>
</linearGradient>
<linearGradient id="paint22_linear_71_147" x1="127.182" y1="0" x2="127.182" y2="30.3396" gradientUnits="userSpaceOnUse">
<stop stop-color="#42250D"/>
<stop offset="1" stop-color="#BF8A5B"/>
</linearGradient>
<linearGradient id="paint23_linear_71_147" x1="147.365" y1="10.1132" x2="147.365" y2="30.3396" gradientUnits="userSpaceOnUse">
<stop stop-color="#42250D"/>
<stop offset="1" stop-color="#BF8A5B"/>
</linearGradient>
<linearGradient id="paint24_linear_71_147" x1="147.365" y1="10.1132" x2="147.365" y2="30.3396" gradientUnits="userSpaceOnUse">
<stop stop-color="#42250D"/>
<stop offset="1" stop-color="#BF8A5B"/>
</linearGradient>
<linearGradient id="paint25_linear_71_147" x1="147.365" y1="10.1132" x2="147.365" y2="30.3396" gradientUnits="userSpaceOnUse">
<stop stop-color="#42250D"/>
<stop offset="1" stop-color="#BF8A5B"/>
</linearGradient>
<linearGradient id="paint26_linear_71_147" x1="167.548" y1="0" x2="167.548" y2="30.3396" gradientUnits="userSpaceOnUse">
<stop stop-color="#42250D"/>
<stop offset="1" stop-color="#BF8A5B"/>
</linearGradient>
<linearGradient id="paint27_linear_71_147" x1="167.548" y1="0" x2="167.548" y2="30.3396" gradientUnits="userSpaceOnUse">
<stop stop-color="#42250D"/>
<stop offset="1" stop-color="#BF8A5B"/>
</linearGradient>
<linearGradient id="paint28_linear_71_147" x1="167.548" y1="0" x2="167.548" y2="30.3396" gradientUnits="userSpaceOnUse">
<stop stop-color="#42250D"/>
<stop offset="1" stop-color="#BF8A5B"/>
</linearGradient>
<linearGradient id="paint29_linear_71_147" x1="187.732" y1="10.1132" x2="187.732" y2="30.3396" gradientUnits="userSpaceOnUse">
<stop stop-color="#42250D"/>
<stop offset="1" stop-color="#BF8A5B"/>
</linearGradient>
<linearGradient id="paint30_linear_71_147" x1="187.732" y1="10.1132" x2="187.732" y2="30.3396" gradientUnits="userSpaceOnUse">
<stop stop-color="#42250D"/>
<stop offset="1" stop-color="#BF8A5B"/>
</linearGradient>
<linearGradient id="paint31_linear_71_147" x1="187.732" y1="10.1132" x2="187.732" y2="30.3396" gradientUnits="userSpaceOnUse">
<stop stop-color="#42250D"/>
<stop offset="1" stop-color="#BF8A5B"/>
</linearGradient>
<linearGradient id="paint32_linear_71_147" x1="207.915" y1="0" x2="207.915" y2="30.3396" gradientUnits="userSpaceOnUse">
<stop stop-color="#42250D"/>
<stop offset="1" stop-color="#BF8A5B"/>
</linearGradient>
<linearGradient id="paint33_linear_71_147" x1="207.915" y1="0" x2="207.915" y2="30.3396" gradientUnits="userSpaceOnUse">
<stop stop-color="#42250D"/>
<stop offset="1" stop-color="#BF8A5B"/>
</linearGradient>
<linearGradient id="paint34_linear_71_147" x1="207.915" y1="0" x2="207.915" y2="30.3396" gradientUnits="userSpaceOnUse">
<stop stop-color="#42250D"/>
<stop offset="1" stop-color="#BF8A5B"/>
</linearGradient>
<linearGradient id="paint35_linear_71_147" x1="228.098" y1="10.1132" x2="228.098" y2="30.3396" gradientUnits="userSpaceOnUse">
<stop stop-color="#42250D"/>
<stop offset="1" stop-color="#BF8A5B"/>
</linearGradient>
<linearGradient id="paint36_linear_71_147" x1="228.098" y1="10.1132" x2="228.098" y2="30.3396" gradientUnits="userSpaceOnUse">
<stop stop-color="#42250D"/>
<stop offset="1" stop-color="#BF8A5B"/>
</linearGradient>
<linearGradient id="paint37_linear_71_147" x1="228.098" y1="10.1132" x2="228.098" y2="30.3396" gradientUnits="userSpaceOnUse">
<stop stop-color="#42250D"/>
<stop offset="1" stop-color="#BF8A5B"/>
</linearGradient>
<linearGradient id="paint38_linear_71_147" x1="248.281" y1="0" x2="248.281" y2="30.3396" gradientUnits="userSpaceOnUse">
<stop stop-color="#42250D"/>
<stop offset="1" stop-color="#BF8A5B"/>
</linearGradient>
<linearGradient id="paint39_linear_71_147" x1="248.281" y1="0" x2="248.281" y2="30.3396" gradientUnits="userSpaceOnUse">
<stop stop-color="#42250D"/>
<stop offset="1" stop-color="#BF8A5B"/>
</linearGradient>
<linearGradient id="paint40_linear_71_147" x1="248.281" y1="0" x2="248.281" y2="30.3396" gradientUnits="userSpaceOnUse">
<stop stop-color="#42250D"/>
<stop offset="1" stop-color="#BF8A5B"/>
</linearGradient>
<linearGradient id="paint41_linear_71_147" x1="268.465" y1="10.1132" x2="268.465" y2="30.3396" gradientUnits="userSpaceOnUse">
<stop stop-color="#42250D"/>
<stop offset="1" stop-color="#BF8A5B"/>
</linearGradient>
<linearGradient id="paint42_linear_71_147" x1="268.465" y1="10.1132" x2="268.465" y2="30.3396" gradientUnits="userSpaceOnUse">
<stop stop-color="#42250D"/>
<stop offset="1" stop-color="#BF8A5B"/>
</linearGradient>
<linearGradient id="paint43_linear_71_147" x1="268.465" y1="10.1132" x2="268.465" y2="30.3396" gradientUnits="userSpaceOnUse">
<stop stop-color="#42250D"/>
<stop offset="1" stop-color="#BF8A5B"/>
</linearGradient>
<linearGradient id="paint44_linear_71_147" x1="288.648" y1="0" x2="288.648" y2="30.3396" gradientUnits="userSpaceOnUse">
<stop stop-color="#42250D"/>
<stop offset="1" stop-color="#BF8A5B"/>
</linearGradient>
<linearGradient id="paint45_linear_71_147" x1="288.648" y1="0" x2="288.648" y2="30.3396" gradientUnits="userSpaceOnUse">
<stop stop-color="#42250D"/>
<stop offset="1" stop-color="#BF8A5B"/>
</linearGradient>
<linearGradient id="paint46_linear_71_147" x1="288.648" y1="0" x2="288.648" y2="30.3396" gradientUnits="userSpaceOnUse">
<stop stop-color="#42250D"/>
<stop offset="1" stop-color="#BF8A5B"/>
</linearGradient>
<linearGradient id="paint47_linear_71_147" x1="308.831" y1="10.1132" x2="308.831" y2="30.3396" gradientUnits="userSpaceOnUse">
<stop stop-color="#42250D"/>
<stop offset="1" stop-color="#BF8A5B"/>
</linearGradient>
<linearGradient id="paint48_linear_71_147" x1="308.831" y1="10.1132" x2="308.831" y2="30.3396" gradientUnits="userSpaceOnUse">
<stop stop-color="#42250D"/>
<stop offset="1" stop-color="#BF8A5B"/>
</linearGradient>
<linearGradient id="paint49_linear_71_147" x1="308.831" y1="10.1132" x2="308.831" y2="30.3396" gradientUnits="userSpaceOnUse">
<stop stop-color="#42250D"/>
<stop offset="1" stop-color="#BF8A5B"/>
</linearGradient>
<linearGradient id="paint50_linear_71_147" x1="329.015" y1="0" x2="329.015" y2="30.3396" gradientUnits="userSpaceOnUse">
<stop stop-color="#42250D"/>
<stop offset="1" stop-color="#BF8A5B"/>
</linearGradient>
<linearGradient id="paint51_linear_71_147" x1="329.015" y1="0" x2="329.015" y2="30.3396" gradientUnits="userSpaceOnUse">
<stop stop-color="#42250D"/>
<stop offset="1" stop-color="#BF8A5B"/>
</linearGradient>
<linearGradient id="paint52_linear_71_147" x1="329.015" y1="0" x2="329.015" y2="30.3396" gradientUnits="userSpaceOnUse">
<stop stop-color="#42250D"/>
<stop offset="1" stop-color="#BF8A5B"/>
</linearGradient>
<linearGradient id="paint53_linear_71_147" x1="369.381" y1="0" x2="369.381" y2="30.3396" gradientUnits="userSpaceOnUse">
<stop stop-color="#42250D"/>
<stop offset="1" stop-color="#BF8A5B"/>
</linearGradient>
<linearGradient id="paint54_linear_71_147" x1="369.381" y1="0" x2="369.381" y2="30.3396" gradientUnits="userSpaceOnUse">
<stop stop-color="#42250D"/>
<stop offset="1" stop-color="#BF8A5B"/>
</linearGradient>
<linearGradient id="paint55_linear_71_147" x1="369.381" y1="0" x2="369.381" y2="30.3396" gradientUnits="userSpaceOnUse">
<stop stop-color="#42250D"/>
<stop offset="1" stop-color="#BF8A5B"/>
</linearGradient>
<linearGradient id="paint56_linear_71_147" x1="349.198" y1="10.1132" x2="349.198" y2="30.3396" gradientUnits="userSpaceOnUse">
<stop stop-color="#42250D"/>
<stop offset="1" stop-color="#BF8A5B"/>
</linearGradient>
<linearGradient id="paint57_linear_71_147" x1="349.198" y1="10.1132" x2="349.198" y2="30.3396" gradientUnits="userSpaceOnUse">
<stop stop-color="#42250D"/>
<stop offset="1" stop-color="#BF8A5B"/>
</linearGradient>
<linearGradient id="paint58_linear_71_147" x1="349.198" y1="10.1132" x2="349.198" y2="30.3396" gradientUnits="userSpaceOnUse">
<stop stop-color="#42250D"/>
<stop offset="1" stop-color="#BF8A5B"/>
</linearGradient>
<linearGradient id="paint59_linear_71_147" x1="188.741" y1="20.2264" x2="188.741" y2="22.7547" gradientUnits="userSpaceOnUse">
<stop stop-color="#42250D"/>
<stop offset="1" stop-color="#BF8A5B"/>
</linearGradient>
<linearGradient id="paint60_linear_71_147" x1="188.741" y1="10.1132" x2="188.741" y2="12.6415" gradientUnits="userSpaceOnUse">
<stop stop-color="#42250D"/>
<stop offset="1" stop-color="#BF8A5B"/>
</linearGradient>
<linearGradient id="paint61_linear_71_147" x1="389.564" y1="0" x2="389.564" y2="30.3396" gradientUnits="userSpaceOnUse">
<stop stop-color="#42250D"/>
<stop offset="1" stop-color="#BF8A5B"/>
</linearGradient>
<linearGradient id="paint62_linear_71_147" x1="389.564" y1="0" x2="389.564" y2="30.3396" gradientUnits="userSpaceOnUse">
<stop stop-color="#42250D"/>
<stop offset="1" stop-color="#BF8A5B"/>
</linearGradient>
<linearGradient id="paint63_linear_71_147" x1="389.564" y1="0" x2="389.564" y2="30.3396" gradientUnits="userSpaceOnUse">
<stop stop-color="#42250D"/>
<stop offset="1" stop-color="#BF8A5B"/>
</linearGradient>
<linearGradient id="paint64_linear_71_147" x1="409.747" y1="11.3774" x2="409.747" y2="30.3396" gradientUnits="userSpaceOnUse">
<stop stop-color="#42250D"/>
<stop offset="1" stop-color="#BF8A5B"/>
</linearGradient>
<linearGradient id="paint65_linear_71_147" x1="409.747" y1="11.3774" x2="409.747" y2="30.3396" gradientUnits="userSpaceOnUse">
<stop stop-color="#42250D"/>
<stop offset="1" stop-color="#BF8A5B"/>
</linearGradient>
<linearGradient id="paint66_linear_71_147" x1="409.747" y1="11.3774" x2="409.747" y2="30.3396" gradientUnits="userSpaceOnUse">
<stop stop-color="#42250D"/>
<stop offset="1" stop-color="#BF8A5B"/>
</linearGradient>
<linearGradient id="paint67_linear_71_147" x1="429.931" y1="0" x2="429.931" y2="30.3396" gradientUnits="userSpaceOnUse">
<stop stop-color="#42250D"/>
<stop offset="1" stop-color="#BF8A5B"/>
</linearGradient>
<linearGradient id="paint68_linear_71_147" x1="429.931" y1="0" x2="429.931" y2="30.3396" gradientUnits="userSpaceOnUse">
<stop stop-color="#42250D"/>
<stop offset="1" stop-color="#BF8A5B"/>
</linearGradient>
<linearGradient id="paint69_linear_71_147" x1="429.931" y1="0" x2="429.931" y2="30.3396" gradientUnits="userSpaceOnUse">
<stop stop-color="#42250D"/>
<stop offset="1" stop-color="#BF8A5B"/>
</linearGradient>
<linearGradient id="paint70_linear_71_147" x1="450.114" y1="10.1132" x2="450.114" y2="30.3396" gradientUnits="userSpaceOnUse">
<stop stop-color="#42250D"/>
<stop offset="1" stop-color="#BF8A5B"/>
</linearGradient>
<linearGradient id="paint71_linear_71_147" x1="450.114" y1="10.1132" x2="450.114" y2="30.3396" gradientUnits="userSpaceOnUse">
<stop stop-color="#42250D"/>
<stop offset="1" stop-color="#BF8A5B"/>
</linearGradient>
<linearGradient id="paint72_linear_71_147" x1="450.114" y1="10.1132" x2="450.114" y2="30.3396" gradientUnits="userSpaceOnUse">
<stop stop-color="#42250D"/>
<stop offset="1" stop-color="#BF8A5B"/>
</linearGradient>
<linearGradient id="paint73_linear_71_147" x1="470.297" y1="0" x2="470.297" y2="30.3396" gradientUnits="userSpaceOnUse">
<stop stop-color="#42250D"/>
<stop offset="1" stop-color="#BF8A5B"/>
</linearGradient>
<linearGradient id="paint74_linear_71_147" x1="470.297" y1="0" x2="470.297" y2="30.3396" gradientUnits="userSpaceOnUse">
<stop stop-color="#42250D"/>
<stop offset="1" stop-color="#BF8A5B"/>
</linearGradient>
<linearGradient id="paint75_linear_71_147" x1="470.297" y1="0" x2="470.297" y2="30.3396" gradientUnits="userSpaceOnUse">
<stop stop-color="#42250D"/>
<stop offset="1" stop-color="#BF8A5B"/>
</linearGradient>
<linearGradient id="paint76_linear_71_147" x1="490.48" y1="10.1132" x2="490.48" y2="30.3396" gradientUnits="userSpaceOnUse">
<stop stop-color="#42250D"/>
<stop offset="1" stop-color="#BF8A5B"/>
</linearGradient>
<linearGradient id="paint77_linear_71_147" x1="490.48" y1="10.1132" x2="490.48" y2="30.3396" gradientUnits="userSpaceOnUse">
<stop stop-color="#42250D"/>
<stop offset="1" stop-color="#BF8A5B"/>
</linearGradient>
<linearGradient id="paint78_linear_71_147" x1="490.48" y1="10.1132" x2="490.48" y2="30.3396" gradientUnits="userSpaceOnUse">
<stop stop-color="#42250D"/>
<stop offset="1" stop-color="#BF8A5B"/>
</linearGradient>
<linearGradient id="paint79_linear_71_147" x1="510.664" y1="0" x2="510.664" y2="30.3396" gradientUnits="userSpaceOnUse">
<stop stop-color="#42250D"/>
<stop offset="1" stop-color="#BF8A5B"/>
</linearGradient>
<linearGradient id="paint80_linear_71_147" x1="510.664" y1="0" x2="510.664" y2="30.3396" gradientUnits="userSpaceOnUse">
<stop stop-color="#42250D"/>
<stop offset="1" stop-color="#BF8A5B"/>
</linearGradient>
<linearGradient id="paint81_linear_71_147" x1="510.664" y1="0" x2="510.664" y2="30.3396" gradientUnits="userSpaceOnUse">
<stop stop-color="#42250D"/>
<stop offset="1" stop-color="#BF8A5B"/>
</linearGradient>
<linearGradient id="paint82_linear_71_147" x1="530.847" y1="10.1132" x2="530.847" y2="30.3396" gradientUnits="userSpaceOnUse">
<stop stop-color="#42250D"/>
<stop offset="1" stop-color="#BF8A5B"/>
</linearGradient>
<linearGradient id="paint83_linear_71_147" x1="530.847" y1="10.1132" x2="530.847" y2="30.3396" gradientUnits="userSpaceOnUse">
<stop stop-color="#42250D"/>
<stop offset="1" stop-color="#BF8A5B"/>
</linearGradient>
<linearGradient id="paint84_linear_71_147" x1="530.847" y1="10.1132" x2="530.847" y2="30.3396" gradientUnits="userSpaceOnUse">
<stop stop-color="#42250D"/>
<stop offset="1" stop-color="#BF8A5B"/>
</linearGradient>
<linearGradient id="paint85_linear_71_147" x1="551.03" y1="0" x2="551.03" y2="30.3396" gradientUnits="userSpaceOnUse">
<stop stop-color="#42250D"/>
<stop offset="1" stop-color="#BF8A5B"/>
</linearGradient>
<linearGradient id="paint86_linear_71_147" x1="551.03" y1="0" x2="551.03" y2="30.3396" gradientUnits="userSpaceOnUse">
<stop stop-color="#42250D"/>
<stop offset="1" stop-color="#BF8A5B"/>
</linearGradient>
<linearGradient id="paint87_linear_71_147" x1="551.03" y1="0" x2="551.03" y2="30.3396" gradientUnits="userSpaceOnUse">
<stop stop-color="#42250D"/>
<stop offset="1" stop-color="#BF8A5B"/>
</linearGradient>
<linearGradient id="paint88_linear_71_147" x1="571.213" y1="10.1132" x2="571.213" y2="30.3396" gradientUnits="userSpaceOnUse">
<stop stop-color="#42250D"/>
<stop offset="1" stop-color="#BF8A5B"/>
</linearGradient>
<linearGradient id="paint89_linear_71_147" x1="571.213" y1="10.1132" x2="571.213" y2="30.3396" gradientUnits="userSpaceOnUse">
<stop stop-color="#42250D"/>
<stop offset="1" stop-color="#BF8A5B"/>
</linearGradient>
<linearGradient id="paint90_linear_71_147" x1="571.213" y1="10.1132" x2="571.213" y2="30.3396" gradientUnits="userSpaceOnUse">
<stop stop-color="#42250D"/>
<stop offset="1" stop-color="#BF8A5B"/>
</linearGradient>
<linearGradient id="paint91_linear_71_147" x1="591.397" y1="0" x2="591.397" y2="30.3396" gradientUnits="userSpaceOnUse">
<stop stop-color="#42250D"/>
<stop offset="1" stop-color="#BF8A5B"/>
</linearGradient>
<linearGradient id="paint92_linear_71_147" x1="591.397" y1="0" x2="591.397" y2="30.3396" gradientUnits="userSpaceOnUse">
<stop stop-color="#42250D"/>
<stop offset="1" stop-color="#BF8A5B"/>
</linearGradient>
<linearGradient id="paint93_linear_71_147" x1="591.397" y1="0" x2="591.397" y2="30.3396" gradientUnits="userSpaceOnUse">
<stop stop-color="#42250D"/>
<stop offset="1" stop-color="#BF8A5B"/>
</linearGradient>
<linearGradient id="paint94_linear_71_147" x1="611.58" y1="10.1132" x2="611.58" y2="30.3396" gradientUnits="userSpaceOnUse">
<stop stop-color="#42250D"/>
<stop offset="1" stop-color="#BF8A5B"/>
</linearGradient>
<linearGradient id="paint95_linear_71_147" x1="611.58" y1="10.1132" x2="611.58" y2="30.3396" gradientUnits="userSpaceOnUse">
<stop stop-color="#42250D"/>
<stop offset="1" stop-color="#BF8A5B"/>
</linearGradient>
<linearGradient id="paint96_linear_71_147" x1="611.58" y1="10.1132" x2="611.58" y2="30.3396" gradientUnits="userSpaceOnUse">
<stop stop-color="#42250D"/>
<stop offset="1" stop-color="#BF8A5B"/>
</linearGradient>
<linearGradient id="paint97_linear_71_147" x1="631.763" y1="0" x2="631.763" y2="30.3396" gradientUnits="userSpaceOnUse">
<stop stop-color="#42250D"/>
<stop offset="1" stop-color="#BF8A5B"/>
</linearGradient>
<linearGradient id="paint98_linear_71_147" x1="631.763" y1="0" x2="631.763" y2="30.3396" gradientUnits="userSpaceOnUse">
<stop stop-color="#42250D"/>
<stop offset="1" stop-color="#BF8A5B"/>
</linearGradient>
<linearGradient id="paint99_linear_71_147" x1="631.763" y1="0" x2="631.763" y2="30.3396" gradientUnits="userSpaceOnUse">
<stop stop-color="#42250D"/>
<stop offset="1" stop-color="#BF8A5B"/>
</linearGradient>
<linearGradient id="paint100_linear_71_147" x1="651.946" y1="10.1132" x2="651.946" y2="30.3396" gradientUnits="userSpaceOnUse">
<stop stop-color="#42250D"/>
<stop offset="1" stop-color="#BF8A5B"/>
</linearGradient>
<linearGradient id="paint101_linear_71_147" x1="651.946" y1="10.1132" x2="651.946" y2="30.3396" gradientUnits="userSpaceOnUse">
<stop stop-color="#42250D"/>
<stop offset="1" stop-color="#BF8A5B"/>
</linearGradient>
<linearGradient id="paint102_linear_71_147" x1="651.946" y1="10.1132" x2="651.946" y2="30.3396" gradientUnits="userSpaceOnUse">
<stop stop-color="#42250D"/>
<stop offset="1" stop-color="#BF8A5B"/>
</linearGradient>
<linearGradient id="paint103_linear_71_147" x1="672.13" y1="0" x2="672.13" y2="30.3396" gradientUnits="userSpaceOnUse">
<stop stop-color="#42250D"/>
<stop offset="1" stop-color="#BF8A5B"/>
</linearGradient>
<linearGradient id="paint104_linear_71_147" x1="672.13" y1="0" x2="672.13" y2="30.3396" gradientUnits="userSpaceOnUse">
<stop stop-color="#42250D"/>
<stop offset="1" stop-color="#BF8A5B"/>
</linearGradient>
<linearGradient id="paint105_linear_71_147" x1="672.13" y1="0" x2="672.13" y2="30.3396" gradientUnits="userSpaceOnUse">
<stop stop-color="#42250D"/>
<stop offset="1" stop-color="#BF8A5B"/>
</linearGradient>
<linearGradient id="paint106_linear_71_147" x1="692.313" y1="10.1132" x2="692.313" y2="30.3396" gradientUnits="userSpaceOnUse">
<stop stop-color="#42250D"/>
<stop offset="1" stop-color="#BF8A5B"/>
</linearGradient>
<linearGradient id="paint107_linear_71_147" x1="692.313" y1="10.1132" x2="692.313" y2="30.3396" gradientUnits="userSpaceOnUse">
<stop stop-color="#42250D"/>
<stop offset="1" stop-color="#BF8A5B"/>
</linearGradient>
<linearGradient id="paint108_linear_71_147" x1="692.313" y1="10.1132" x2="692.313" y2="30.3396" gradientUnits="userSpaceOnUse">
<stop stop-color="#42250D"/>
<stop offset="1" stop-color="#BF8A5B"/>
</linearGradient>
<linearGradient id="paint109_linear_71_147" x1="712.496" y1="0" x2="712.496" y2="30.3396" gradientUnits="userSpaceOnUse">
<stop stop-color="#42250D"/>
<stop offset="1" stop-color="#BF8A5B"/>
</linearGradient>
<linearGradient id="paint110_linear_71_147" x1="712.496" y1="0" x2="712.496" y2="30.3396" gradientUnits="userSpaceOnUse">
<stop stop-color="#42250D"/>
<stop offset="1" stop-color="#BF8A5B"/>
</linearGradient>
<linearGradient id="paint111_linear_71_147" x1="712.496" y1="0" x2="712.496" y2="30.3396" gradientUnits="userSpaceOnUse">
<stop stop-color="#42250D"/>
<stop offset="1" stop-color="#BF8A5B"/>
</linearGradient>
<linearGradient id="paint112_linear_71_147" x1="752.863" y1="0" x2="752.863" y2="30.3396" gradientUnits="userSpaceOnUse">
<stop stop-color="#42250D"/>
<stop offset="1" stop-color="#BF8A5B"/>
</linearGradient>
<linearGradient id="paint113_linear_71_147" x1="752.863" y1="0" x2="752.863" y2="30.3396" gradientUnits="userSpaceOnUse">
<stop stop-color="#42250D"/>
<stop offset="1" stop-color="#BF8A5B"/>
</linearGradient>
<linearGradient id="paint114_linear_71_147" x1="752.863" y1="0" x2="752.863" y2="30.3396" gradientUnits="userSpaceOnUse">
<stop stop-color="#42250D"/>
<stop offset="1" stop-color="#BF8A5B"/>
</linearGradient>
<linearGradient id="paint115_linear_71_147" x1="732.679" y1="10.1132" x2="732.679" y2="30.3396" gradientUnits="userSpaceOnUse">
<stop stop-color="#42250D"/>
<stop offset="1" stop-color="#BF8A5B"/>
</linearGradient>
<linearGradient id="paint116_linear_71_147" x1="732.679" y1="10.1132" x2="732.679" y2="30.3396" gradientUnits="userSpaceOnUse">
<stop stop-color="#42250D"/>
<stop offset="1" stop-color="#BF8A5B"/>
</linearGradient>
<linearGradient id="paint117_linear_71_147" x1="732.679" y1="10.1132" x2="732.679" y2="30.3396" gradientUnits="userSpaceOnUse">
<stop stop-color="#42250D"/>
<stop offset="1" stop-color="#BF8A5B"/>
</linearGradient>
<linearGradient id="paint118_linear_71_147" x1="572.223" y1="20.2264" x2="572.223" y2="22.7547" gradientUnits="userSpaceOnUse">
<stop stop-color="#42250D"/>
<stop offset="1" stop-color="#BF8A5B"/>
</linearGradient>
<linearGradient id="paint119_linear_71_147" x1="572.223" y1="10.1132" x2="572.223" y2="12.6415" gradientUnits="userSpaceOnUse">
<stop stop-color="#42250D"/>
<stop offset="1" stop-color="#BF8A5B"/>
</linearGradient>
<clipPath id="clip0_71_147">
<rect width="766.963" height="67" fill="white" transform="translate(-3)"/>
</clipPath>
</defs>
</svg>
