<svg width="760" height="157" viewBox="0 0 760 157" fill="none" xmlns="http://www.w3.org/2000/svg">
<g clip-path="url(#clip0_67_17)">
<path d="M0 40C0 17.9086 19.3654 0 43.2539 0H50.8233C74.7117 0 94.0771 17.9086 94.0771 40V160H0V40Z" fill="url(#paint0_linear_67_17)"/>
<path d="M253.035 82C253.035 59.9086 272.401 42 296.289 42H303.858C327.746 42 347.112 59.9086 347.112 82V159H253.035V82Z" fill="url(#paint1_linear_67_17)"/>
<path d="M244.384 117C244.384 104.297 255.519 94 269.255 94C282.992 94 294.126 104.297 294.126 117V159H244.384V117Z" fill="url(#paint2_linear_67_17)"/>
<path d="M57.3114 99.5C57.3114 78.237 75.9506 61 98.9432 61C121.936 61 140.575 78.237 140.575 99.5V159H57.3114V99.5Z" fill="url(#paint3_linear_67_17)"/>
<path d="M440.108 58C440.108 44.1929 452.211 33 467.142 33C482.072 33 494.175 44.1929 494.175 58V144H440.108V58Z" fill="url(#paint4_linear_67_17)"/>
<path d="M479.036 71.5C479.036 57.4167 491.382 46 506.611 46C521.839 46 534.185 57.4167 534.185 71.5V144H479.036V71.5Z" fill="url(#paint5_linear_67_17)"/>
<path d="M514.721 99.5C514.721 85.4167 527.067 74 542.295 74C557.524 74 569.87 85.4167 569.87 99.5V144H514.721V99.5Z" fill="url(#paint6_linear_67_17)"/>
<path d="M654.215 70C654.215 47.9086 673.58 30 697.468 30H705.038C728.926 30 748.292 47.9086 748.292 70V147H654.215V70Z" fill="url(#paint7_linear_67_17)"/>
<path d="M629.344 118C629.344 105.297 640.478 95 654.215 95C667.951 95 679.086 105.297 679.086 118V160H629.344V118Z" fill="url(#paint8_linear_67_17)"/>
<path d="M721.258 87C721.258 74.2975 732.393 64 746.129 64C759.865 64 771 74.2975 771 87V144H721.258V87Z" fill="url(#paint9_linear_67_17)"/>
</g>
<defs>
<linearGradient id="paint0_linear_67_17" x1="47.0386" y1="0" x2="47.0386" y2="160" gradientUnits="userSpaceOnUse">
<stop stop-color="#2B7630"/>
<stop offset="1" stop-color="white" stop-opacity="0"/>
</linearGradient>
<linearGradient id="paint1_linear_67_17" x1="300.074" y1="42" x2="300.074" y2="159" gradientUnits="userSpaceOnUse">
<stop stop-color="#28742D"/>
<stop offset="1" stop-color="white" stop-opacity="0"/>
</linearGradient>
<linearGradient id="paint2_linear_67_17" x1="269.255" y1="94" x2="269.255" y2="159" gradientUnits="userSpaceOnUse">
<stop stop-color="#28742D"/>
<stop offset="1" stop-color="white" stop-opacity="0"/>
</linearGradient>
<linearGradient id="paint3_linear_67_17" x1="98.9432" y1="61" x2="98.9432" y2="159" gradientUnits="userSpaceOnUse">
<stop stop-color="#28742D"/>
<stop offset="1" stop-color="white" stop-opacity="0"/>
</linearGradient>
<linearGradient id="paint4_linear_67_17" x1="467.142" y1="33" x2="467.142" y2="144" gradientUnits="userSpaceOnUse">
<stop stop-color="#2B7630"/>
<stop offset="1" stop-color="white" stop-opacity="0"/>
</linearGradient>
<linearGradient id="paint5_linear_67_17" x1="506.611" y1="46" x2="506.611" y2="144" gradientUnits="userSpaceOnUse">
<stop stop-color="#2B7630"/>
<stop offset="1" stop-color="white" stop-opacity="0"/>
</linearGradient>
<linearGradient id="paint6_linear_67_17" x1="542.295" y1="74" x2="542.295" y2="144" gradientUnits="userSpaceOnUse">
<stop stop-color="#2B7630"/>
<stop offset="1" stop-color="white" stop-opacity="0"/>
</linearGradient>
<linearGradient id="paint7_linear_67_17" x1="701.253" y1="30" x2="701.253" y2="147" gradientUnits="userSpaceOnUse">
<stop stop-color="#2B7630"/>
<stop offset="1" stop-color="white" stop-opacity="0"/>
</linearGradient>
<linearGradient id="paint8_linear_67_17" x1="654.215" y1="95" x2="654.215" y2="160" gradientUnits="userSpaceOnUse">
<stop stop-color="#2B7630"/>
<stop offset="1" stop-color="white" stop-opacity="0"/>
</linearGradient>
<linearGradient id="paint9_linear_67_17" x1="746.129" y1="64" x2="746.129" y2="144" gradientUnits="userSpaceOnUse">
<stop stop-color="#2B7630"/>
<stop offset="1" stop-color="white" stop-opacity="0"/>
</linearGradient>
<clipPath id="clip0_67_17">
<rect width="771" height="160" fill="white"/>
</clipPath>
</defs>
</svg>
