<svg width="760" height="160" viewBox="0 0 760 160" fill="none" xmlns="http://www.w3.org/2000/svg">
<g clip-path="url(#clip0_69_317)">
<path d="M0 40C0 17.9086 17.7028 0 39.5402 0H46.4598C68.2972 0 86 17.9086 86 40V160H0V40Z" fill="url(#paint0_linear_69_317)"/>
<path d="M249.425 82C249.425 59.9086 268.515 42 292.062 42H299.523C323.07 42 342.16 59.9086 342.16 82V159H249.425V82Z" fill="url(#paint1_linear_69_317)"/>
<path d="M240.898 117C240.898 104.297 251.873 94 265.414 94C278.954 94 289.93 104.297 289.93 117V159H240.898V117Z" fill="url(#paint2_linear_69_317)"/>
<path d="M56.4937 99.5C56.4937 78.237 74.8669 61 97.5315 61C120.196 61 138.569 78.237 138.569 99.5V159H56.4937V99.5Z" fill="url(#paint3_linear_69_317)"/>
<path d="M433.829 58C433.829 44.1929 445.76 33 460.477 33C475.194 33 487.125 44.1929 487.125 58V144H433.829V58Z" fill="url(#paint4_linear_69_317)"/>
<path d="M472.202 71.5C472.202 57.4167 484.371 46 499.383 46C514.394 46 526.564 57.4167 526.564 71.5V144H472.202V71.5Z" fill="url(#paint5_linear_69_317)"/>
<path d="M507.377 99.5C507.377 85.4167 519.547 74 534.558 74C549.569 74 561.739 85.4167 561.739 99.5V144H507.377V99.5Z" fill="url(#paint6_linear_69_317)"/>
<path d="M644.881 70C644.881 47.9086 663.97 30 687.518 30H694.979C718.526 30 737.616 47.9086 737.616 70V147H644.881V70Z" fill="url(#paint7_linear_69_317)"/>
<path d="M620.365 118C620.365 105.297 631.341 95 644.881 95C658.421 95 669.397 105.297 669.397 118V160H620.365V118Z" fill="url(#paint8_linear_69_317)"/>
<path d="M710.968 87C710.968 74.2975 721.944 64 735.484 64C749.024 64 760 74.2975 760 87V144H710.968V87Z" fill="url(#paint9_linear_69_317)"/>
<path d="M171.025 21L171.799 25.1459H174.306L172.278 27.7082L173.053 31.8541L171.025 29.2918L168.997 31.8541L169.771 27.7082L167.743 25.1459H170.25L171.025 21Z" fill="#E0CB2D"/>
<path d="M101.038 12L101.812 16.1459H104.319L102.291 18.7082L103.065 22.8541L101.038 20.2918L99.0097 22.8541L99.7843 18.7082L97.7564 16.1459H100.263L101.038 12Z" fill="#E0CB2D"/>
<path d="M575.175 18L575.95 22.1459H578.456L576.428 24.7082L577.203 28.8541L575.175 26.2918L573.147 28.8541L573.922 24.7082L571.894 22.1459H574.401L575.175 18Z" fill="#E0CB2D"/>
<path d="M383.943 30L384.718 34.1459H387.224L385.196 36.7082L385.971 40.8541L383.943 38.2918L381.915 40.8541L382.69 36.7082L380.662 34.1459H383.168L383.943 30Z" fill="#E0CB2D"/>
<path d="M615.097 83L615.54 86.4549H616.972L615.813 88.5902L616.256 92.0451L615.097 89.9098L613.938 92.0451L614.381 88.5902L613.222 86.4549H614.655L615.097 83Z" fill="#E0CB2D"/>
<ellipse cx="188.768" cy="62" rx="0.492866" ry="1" fill="#D9D9D9"/>
</g>
<defs>
<linearGradient id="paint0_linear_69_317" x1="43" y1="0" x2="43" y2="160" gradientUnits="userSpaceOnUse">
<stop offset="0.275" stop-color="#19591D"/>
<stop offset="0.695" stop-color="white" stop-opacity="0"/>
</linearGradient>
<linearGradient id="paint1_linear_69_317" x1="295.793" y1="42" x2="295.793" y2="159" gradientUnits="userSpaceOnUse">
<stop stop-color="#19591D"/>
<stop offset="1" stop-color="white" stop-opacity="0"/>
</linearGradient>
<linearGradient id="paint2_linear_69_317" x1="265.414" y1="94" x2="265.414" y2="159" gradientUnits="userSpaceOnUse">
<stop stop-color="#19591D"/>
<stop offset="1" stop-color="white" stop-opacity="0"/>
</linearGradient>
<linearGradient id="paint3_linear_69_317" x1="97.5315" y1="61" x2="97.5315" y2="159" gradientUnits="userSpaceOnUse">
<stop stop-color="#19591D"/>
<stop offset="1" stop-color="white" stop-opacity="0"/>
</linearGradient>
<linearGradient id="paint4_linear_69_317" x1="460.477" y1="33" x2="460.477" y2="144" gradientUnits="userSpaceOnUse">
<stop stop-color="#2B7630"/>
<stop offset="1" stop-color="white" stop-opacity="0"/>
</linearGradient>
<linearGradient id="paint5_linear_69_317" x1="499.383" y1="46" x2="499.383" y2="144" gradientUnits="userSpaceOnUse">
<stop stop-color="#2B7630"/>
<stop offset="1" stop-color="white" stop-opacity="0"/>
</linearGradient>
<linearGradient id="paint6_linear_69_317" x1="534.558" y1="74" x2="534.558" y2="144" gradientUnits="userSpaceOnUse">
<stop stop-color="#19591D"/>
<stop offset="1" stop-color="white" stop-opacity="0"/>
</linearGradient>
<linearGradient id="paint7_linear_69_317" x1="691.248" y1="30" x2="691.248" y2="147" gradientUnits="userSpaceOnUse">
<stop stop-color="#19591D"/>
<stop offset="1" stop-color="white" stop-opacity="0"/>
</linearGradient>
<linearGradient id="paint8_linear_69_317" x1="644.881" y1="95" x2="644.881" y2="160" gradientUnits="userSpaceOnUse">
<stop stop-color="#19591D"/>
<stop offset="1" stop-color="white" stop-opacity="0"/>
</linearGradient>
<linearGradient id="paint9_linear_69_317" x1="735.484" y1="64" x2="735.484" y2="144" gradientUnits="userSpaceOnUse">
<stop stop-color="#19591D"/>
<stop offset="0.835" stop-color="white" stop-opacity="0"/>
</linearGradient>
<clipPath id="clip0_69_317">
<rect width="760" height="160" fill="white"/>
</clipPath>
</defs>
</svg>
