<svg width="15" height="15" viewBox="0 0 15 15" fill="none" xmlns="http://www.w3.org/2000/svg">
<path d="M14.8298 10.9577C14.3961 10.2682 13.7515 8.31743 13.7515 5.76948C13.7515 4.23932 13.0929 2.77183 11.9206 1.68984C10.7483 0.607854 9.15828 0 7.50039 0C5.8425 0 4.25251 0.607854 3.08021 1.68984C1.9079 2.77183 1.24931 4.23932 1.24931 5.76948C1.24931 8.31815 0.603886 10.2682 0.170218 10.9577C0.0594723 11.133 0.000762081 11.3321 7.36921e-06 11.535C-0.000747342 11.7379 0.0564803 11.9374 0.165919 12.1134C0.275358 12.2894 0.433138 12.4356 0.623347 12.5373C0.813556 12.6391 1.02947 12.6927 1.24931 12.6929H4.43814C4.58236 13.3442 4.96591 13.9296 5.5239 14.35C6.0819 14.7704 6.78009 15 7.50039 15C8.22069 15 8.91888 14.7704 9.47688 14.35C10.0349 13.9296 10.4184 13.3442 10.5626 12.6929H13.7515C13.9712 12.6926 14.1871 12.6388 14.3772 12.5371C14.5673 12.4353 14.7249 12.289 14.8343 12.1131C14.9436 11.9371 15.0008 11.7377 15 11.5348C14.9992 11.332 14.9405 11.1329 14.8298 10.9577ZM7.50039 13.8468C7.11268 13.8466 6.73454 13.7356 6.41801 13.529C6.10149 13.3223 5.86213 13.0302 5.7329 12.6929H9.26788C9.13865 13.0302 8.89929 13.3223 8.58277 13.529C8.26624 13.7356 7.8881 13.8466 7.50039 13.8468ZM1.24931 11.539C1.85098 10.5841 2.49953 8.37152 2.49953 5.76948C2.49953 4.54535 3.0264 3.37136 3.96425 2.50577C4.90209 1.64018 6.17408 1.1539 7.50039 1.1539C8.8267 1.1539 10.0987 1.64018 11.0365 2.50577C11.9744 3.37136 12.5013 4.54535 12.5013 5.76948C12.5013 8.36935 13.1482 10.5819 13.7515 11.539H1.24931Z" fill="#A9903C" fill-opacity="0.82"/>
</svg>
