<svg width="16" height="16" viewBox="0 0 16 16" fill="none" xmlns="http://www.w3.org/2000/svg">
<rect x="0.5" y="0.5" width="15" height="15" rx="3.5" fill="#333131" stroke="#915921"/>
<path d="M11.6667 4.23077H10V3.92308C10 3.67826 9.89464 3.44347 9.70711 3.27036C9.51957 3.09725 9.26522 3 9 3H7C6.73478 3 6.48043 3.09725 6.29289 3.27036C6.10536 3.44347 6 3.67826 6 3.92308V4.23077H4.33333C4.24493 4.23077 4.16014 4.26319 4.09763 4.32089C4.03512 4.37859 4 4.45686 4 4.53846C4 4.62007 4.03512 4.69833 4.09763 4.75603C4.16014 4.81374 4.24493 4.84615 4.33333 4.84615H4.66667V10.3846C4.66667 10.5478 4.7369 10.7044 4.86193 10.8198C4.98695 10.9352 5.15652 11 5.33333 11H10.6667C10.8435 11 11.013 10.9352 11.1381 10.8198C11.2631 10.7044 11.3333 10.5478 11.3333 10.3846V4.84615H11.6667C11.7551 4.84615 11.8399 4.81374 11.9024 4.75603C11.9649 4.69833 12 4.62007 12 4.53846C12 4.45686 11.9649 4.37859 11.9024 4.32089C11.8399 4.26319 11.7551 4.23077 11.6667 4.23077ZM6.66667 3.92308C6.66667 3.84147 6.70179 3.76321 6.7643 3.70551C6.82681 3.6478 6.91159 3.61538 7 3.61538H9C9.08841 3.61538 9.17319 3.6478 9.2357 3.70551C9.29821 3.76321 9.33333 3.84147 9.33333 3.92308V4.23077H6.66667V3.92308ZM10.6667 10.3846H5.33333V4.84615H10.6667V10.3846ZM7.33333 6.38462V8.84615C7.33333 8.92776 7.29821 9.00602 7.2357 9.06373C7.17319 9.12143 7.08841 9.15385 7 9.15385C6.91159 9.15385 6.82681 9.12143 6.7643 9.06373C6.70179 9.00602 6.66667 8.92776 6.66667 8.84615V6.38462C6.66667 6.30301 6.70179 6.22475 6.7643 6.16704C6.82681 6.10934 6.91159 6.07692 7 6.07692C7.08841 6.07692 7.17319 6.10934 7.2357 6.16704C7.29821 6.22475 7.33333 6.30301 7.33333 6.38462ZM9.33333 6.38462V8.84615C9.33333 8.92776 9.29821 9.00602 9.2357 9.06373C9.17319 9.12143 9.08841 9.15385 9 9.15385C8.91159 9.15385 8.82681 9.12143 8.7643 9.06373C8.70179 9.00602 8.66667 8.92776 8.66667 8.84615V6.38462C8.66667 6.30301 8.70179 6.22475 8.7643 6.16704C8.82681 6.10934 8.91159 6.07692 9 6.07692C9.08841 6.07692 9.17319 6.10934 9.2357 6.16704C9.29821 6.22475 9.33333 6.30301 9.33333 6.38462Z" fill="#B2661A"/>
</svg>
