<svg width="13" height="12" viewBox="0 0 13 12" fill="none" xmlns="http://www.w3.org/2000/svg">
<path d="M13 6C13 6.15912 12.9429 6.31172 12.8414 6.42424C12.7398 6.53676 12.602 6.59997 12.4584 6.59997H1.84948L5.80013 10.9752C5.85046 11.031 5.89038 11.0971 5.91761 11.17C5.94485 11.2428 5.95887 11.3209 5.95887 11.3997C5.95887 11.4785 5.94485 11.5566 5.91761 11.6294C5.89038 11.7023 5.85046 11.7684 5.80013 11.8242C5.74981 11.8799 5.69006 11.9241 5.62431 11.9543C5.55856 11.9845 5.48809 12 5.41692 12C5.34575 12 5.27527 11.9845 5.20952 11.9543C5.14377 11.9241 5.08402 11.8799 5.0337 11.8242L0.158858 6.42448C0.108498 6.36876 0.0685463 6.30259 0.0412882 6.22975C0.0140301 6.15692 0 6.07884 0 6C0 5.92115 0.0140301 5.84308 0.0412882 5.77025C0.0685463 5.69741 0.108498 5.63124 0.158858 5.57552L5.0337 0.175824C5.13533 0.0632457 5.27318 -1.1862e-09 5.41692 0C5.56065 1.1862e-09 5.6985 0.0632457 5.80013 0.175824C5.90177 0.288402 5.95887 0.441091 5.95887 0.6003C5.95887 0.75951 5.90177 0.912198 5.80013 1.02478L1.84948 5.40003H12.4584C12.602 5.40003 12.7398 5.46324 12.8414 5.57576C12.9429 5.68827 13 5.84088 13 6Z" fill="white"/>
</svg>
