<svg width="20" height="14" viewBox="0 0 20 14" fill="none" xmlns="http://www.w3.org/2000/svg">
<path d="M17.5 3.49656C17.0055 3.49656 16.5222 3.61618 16.1111 3.8403C15.7 4.06442 15.3795 4.38297 15.1903 4.75567C15.0011 5.12837 14.9516 5.53848 15.048 5.93413C15.1445 6.32979 15.3826 6.69322 15.7322 6.97847C16.0819 7.26372 16.5273 7.45798 17.0123 7.53668C17.4972 7.61538 17.9999 7.57499 18.4567 7.42061C18.9135 7.26624 19.304 7.00481 19.5787 6.66939C19.8534 6.33397 20 5.93962 20 5.53622C20 4.99527 19.7366 4.47647 19.2678 4.09396C18.7989 3.71145 18.163 3.49656 17.5 3.49656ZM17.5 6.41036C17.2881 6.41036 17.0809 6.35909 16.9047 6.26304C16.7286 6.16699 16.5912 6.03046 16.5101 5.87074C16.429 5.71101 16.4078 5.53525 16.4492 5.36568C16.4905 5.19611 16.5925 5.04036 16.7424 4.91811C16.8922 4.79586 17.0831 4.7126 17.291 4.67887C17.4988 4.64514 17.7142 4.66246 17.91 4.72862C18.1058 4.79478 18.2731 4.90682 18.3909 5.05057C18.5086 5.19432 18.5714 5.36333 18.5714 5.53622C18.5714 5.76805 18.4585 5.99039 18.2576 6.15433C18.0567 6.31826 17.7842 6.41036 17.5 6.41036ZM5 5.53622C5 5.13281 4.85338 4.73846 4.57867 4.40304C4.30397 4.06762 3.91352 3.80619 3.45671 3.65182C2.99989 3.49744 2.49723 3.45705 2.01228 3.53575C1.52732 3.61445 1.08187 3.80871 0.732234 4.09396C0.382603 4.37921 0.144501 4.74264 0.0480379 5.1383C-0.0484251 5.53395 0.00108321 5.94406 0.190302 6.31676C0.379521 6.68946 0.699953 7.00801 1.11108 7.23213C1.5222 7.45625 2.00555 7.57587 2.5 7.57587C3.16304 7.57587 3.79893 7.36098 4.26777 6.97847C4.73661 6.59596 5 6.07717 5 5.53622ZM2.5 6.41036C2.28809 6.41036 2.08094 6.35909 1.90475 6.26304C1.72855 6.16699 1.59122 6.03046 1.51013 5.87074C1.42904 5.71101 1.40782 5.53525 1.44916 5.36568C1.4905 5.19611 1.59254 5.04036 1.74239 4.91811C1.89223 4.79586 2.08314 4.7126 2.29098 4.67887C2.49881 4.64514 2.71424 4.66246 2.91002 4.72862C3.1058 4.79478 3.27313 4.90682 3.39086 5.05057C3.50859 5.19432 3.57143 5.36333 3.57143 5.53622C3.57143 5.76805 3.45855 5.99039 3.25762 6.15433C3.05668 6.31826 2.78416 6.41036 2.5 6.41036ZM6.78572 4.07932C7.28017 4.07932 7.76352 3.95969 8.17464 3.73557C8.58576 3.51145 8.90619 3.1929 9.09541 2.8202C9.28463 2.4475 9.33414 2.0374 9.23768 1.64174C9.14122 1.24609 8.90311 0.882654 8.55348 0.597403C8.20385 0.312152 7.75839 0.117893 7.27344 0.0391924C6.78849 -0.0395083 6.28582 0.00088375 5.82901 0.155261C5.37219 0.309638 4.98174 0.571066 4.70704 0.906486C4.43234 1.24191 4.28572 1.63625 4.28572 2.03966C4.28572 2.58061 4.54911 3.09941 5.01795 3.48192C5.48679 3.86443 6.12267 4.07932 6.78572 4.07932ZM6.78572 1.16552C6.99762 1.16552 7.20477 1.21679 7.38097 1.31284C7.55716 1.40889 7.69449 1.54541 7.77559 1.70514C7.85668 1.86487 7.8779 2.04063 7.83656 2.2102C7.79522 2.37976 7.69317 2.53552 7.54333 2.65777C7.39349 2.78002 7.20258 2.86327 6.99474 2.897C6.7869 2.93073 6.57148 2.91342 6.3757 2.84726C6.17992 2.7811 6.01258 2.66906 5.89485 2.5253C5.77712 2.38155 5.71429 2.21255 5.71429 2.03966C5.71429 1.80782 5.82717 1.58548 6.0281 1.42155C6.22903 1.25762 6.50155 1.16552 6.78572 1.16552ZM13.2143 4.07932C13.7087 4.07932 14.1921 3.95969 14.6032 3.73557C15.0143 3.51145 15.3348 3.1929 15.524 2.8202C15.7132 2.4475 15.7627 2.0374 15.6662 1.64174C15.5698 1.24609 15.3317 0.882654 14.9821 0.597403C14.6324 0.312152 14.187 0.117893 13.702 0.0391924C13.2171 -0.0395083 12.7144 0.00088375 12.2576 0.155261C11.8008 0.309638 11.4103 0.571066 11.1356 0.906486C10.8609 1.24191 10.7143 1.63625 10.7143 2.03966C10.7143 2.58061 10.9777 3.09941 11.4465 3.48192C11.9154 3.86443 12.5512 4.07932 13.2143 4.07932ZM13.2143 1.16552C13.4262 1.16552 13.6333 1.21679 13.8095 1.31284C13.9857 1.40889 14.1231 1.54541 14.2042 1.70514C14.2853 1.86487 14.3065 2.04063 14.2651 2.2102C14.2238 2.37976 14.1217 2.53552 13.9719 2.65777C13.8221 2.78002 13.6311 2.86327 13.4233 2.897C13.2155 2.93073 13 2.91342 12.8043 2.84726C12.6085 2.7811 12.4412 2.66906 12.3234 2.5253C12.2057 2.38155 12.1429 2.21255 12.1429 2.03966C12.1429 1.80782 12.2557 1.58548 12.4567 1.42155C12.6576 1.25762 12.9301 1.16552 13.2143 1.16552ZM15.2786 8.51266C14.9158 8.34936 14.596 8.12929 14.3375 7.86505C14.079 7.60081 13.887 7.29758 13.7723 6.97272C13.5348 6.30637 13.0387 5.7209 12.3584 5.30431C11.6782 4.88771 10.8506 4.66249 10 4.66249C9.14943 4.66249 8.32183 4.88771 7.64158 5.30431C6.96133 5.7209 6.46518 6.30637 6.22768 6.97272C5.99826 7.6264 5.46043 8.17916 4.73214 8.50975C4.0335 8.81817 3.48083 9.30783 3.16154 9.90126C2.84226 10.4947 2.77458 11.158 2.96922 11.7864C3.16386 12.4147 3.6097 12.9722 4.23623 13.3706C4.86275 13.769 5.63421 13.9856 6.42857 13.9862C6.90461 13.9873 7.37599 13.9098 7.81429 13.7582C9.21167 13.288 10.7803 13.288 12.1777 13.7582C13.0241 14.0586 13.9801 14.0799 14.8453 13.8177C15.7106 13.5556 16.4178 13.0304 16.8188 12.3521C17.2198 11.6739 17.2834 10.8953 16.9963 10.1797C16.7091 9.46403 16.0935 8.86687 15.2786 8.51339V8.51266ZM13.5714 12.8207C13.2814 12.8209 12.9944 12.7731 12.7277 12.6801C10.9782 12.0906 9.01373 12.0906 7.26429 12.6801C6.75589 12.8587 6.18251 12.8699 5.66426 12.7113C5.146 12.5527 4.72307 12.2366 4.48407 11.8293C4.24506 11.4219 4.20851 10.955 4.38207 10.5262C4.55564 10.0973 4.92586 9.73995 5.41518 9.52885C5.94129 9.2918 6.40496 8.97247 6.7797 8.58911C7.15443 8.20576 7.43288 7.7659 7.59911 7.29469C7.75006 6.87044 8.06575 6.49764 8.49872 6.23235C8.93169 5.96706 9.45853 5.82364 10 5.82364C10.5415 5.82364 11.0683 5.96706 11.5013 6.23235C11.9342 6.49764 12.2499 6.87044 12.4009 7.29469C12.5677 7.76678 12.847 8.20738 13.2228 8.59126C13.5986 8.97513 14.0636 9.29474 14.5911 9.53176C15.0124 9.7161 15.346 10.0101 15.5389 10.3669C15.7318 10.7238 15.7729 11.123 15.6557 11.5011C15.5385 11.8793 15.2697 12.2145 14.892 12.4536C14.5143 12.6927 14.0495 12.822 13.5714 12.8207Z" fill="#8F8563" fill-opacity="0.82"/>
</svg>
