<svg width="16" height="16" viewBox="0 0 16 16" fill="none" xmlns="http://www.w3.org/2000/svg">
<rect width="16" height="16" rx="4" fill="#333131"/>
<rect x="0.5" y="0.5" width="15" height="15" rx="3.5" stroke="#A9903C" stroke-opacity="0.82"/>
<path d="M11.8125 5.97503L10.0253 4.1875C9.96584 4.12805 9.89528 4.0809 9.81762 4.04873C9.73996 4.01656 9.65673 4 9.57267 4C9.48861 4 9.40537 4.01656 9.32771 4.04873C9.25006 4.0809 9.1795 4.12805 9.12006 4.1875L4.18761 9.12011C4.12792 9.17932 4.08059 9.2498 4.04839 9.32747C4.01618 9.40513 3.99973 9.48842 4 9.57249V11.36C4 11.5298 4.06743 11.6925 4.18746 11.8126C4.30748 11.9326 4.47027 12 4.64001 12H6.42763C6.51171 12.0003 6.595 11.9838 6.67267 11.9516C6.75033 11.9194 6.82082 11.8721 6.88004 11.8124L11.8125 6.88019C11.8719 6.82076 11.9191 6.75021 11.9513 6.67255C11.9834 6.5949 12 6.51167 12 6.42761C12 6.34356 11.9834 6.26032 11.9513 6.18267C11.9191 6.10501 11.8719 6.03446 11.8125 5.97503ZM6.42763 11.36H4.64001V9.57249L8.16005 6.05262L9.94767 7.84016L6.42763 11.36ZM10.4001 7.38737L8.61246 5.60024L9.57247 4.64028L11.3601 6.42741L10.4001 7.38737Z" fill="#A9903C" fill-opacity="0.82"/>
</svg>
