<svg width="16" height="16" viewBox="0 0 16 16" fill="none" xmlns="http://www.w3.org/2000/svg">
<rect width="16" height="16" rx="4" fill="#3B3A3A"/>
<rect x="0.5" y="0.5" width="15" height="15" rx="3.5" stroke="white" stroke-opacity="0.56"/>
<path d="M11.9099 11.475L9.98624 9.55171C10.5438 8.88233 10.8218 8.02375 10.7625 7.15459C10.7032 6.28544 10.311 5.47262 9.66764 4.88522C9.02428 4.29783 8.17922 3.98108 7.30826 4.00087C6.43731 4.02067 5.60751 4.37548 4.9915 4.9915C4.37548 5.60751 4.02067 6.43731 4.00087 7.30826C3.98108 8.17922 4.29783 9.02428 4.88522 9.66764C5.47262 10.311 6.28544 10.7032 7.15459 10.7625C8.02375 10.8218 8.88233 10.5438 9.55171 9.98624L11.475 11.9099C11.5036 11.9385 11.5375 11.9611 11.5748 11.9766C11.6121 11.992 11.6521 12 11.6925 12C11.7329 12 11.7728 11.992 11.8102 11.9766C11.8475 11.9611 11.8814 11.9385 11.9099 11.9099C11.9385 11.8814 11.9611 11.8475 11.9766 11.8102C11.992 11.7728 12 11.7329 12 11.6925C12 11.6521 11.992 11.6121 11.9766 11.5748C11.9611 11.5375 11.9385 11.5036 11.9099 11.475ZM4.62321 7.38944C4.62321 6.84233 4.78545 6.30751 5.0894 5.85261C5.39336 5.3977 5.82539 5.04315 6.33085 4.83378C6.83631 4.62441 7.39251 4.56963 7.92911 4.67636C8.4657 4.7831 8.9586 5.04656 9.34546 5.43342C9.73233 5.82029 9.99579 6.31318 10.1025 6.84978C10.2093 7.38637 10.1545 7.94257 9.94511 8.44803C9.73574 8.9535 9.38118 9.38552 8.92628 9.68948C8.47137 9.99344 7.93655 10.1557 7.38944 10.1557C6.65604 10.1549 5.95291 9.86316 5.43432 9.34457C4.91573 8.82597 4.62402 8.12284 4.62321 7.38944Z" fill="#B3AEAE"/>
</svg>
