<svg width="15" height="15" viewBox="0 0 15 15" fill="none" xmlns="http://www.w3.org/2000/svg">
<path d="M5.45455 0H1.36364C1.00198 0 0.655131 0.143668 0.3994 0.3994C0.143668 0.655131 0 1.00198 0 1.36364V5.45455C0 5.8162 0.143668 6.16305 0.3994 6.41878C0.655131 6.67451 1.00198 6.81818 1.36364 6.81818H5.45455C5.8162 6.81818 6.16305 6.67451 6.41878 6.41878C6.67451 6.16305 6.81818 5.8162 6.81818 5.45455V1.36364C6.81818 1.00198 6.67451 0.655131 6.41878 0.3994C6.16305 0.143668 5.8162 0 5.45455 0ZM5.45455 5.45455H1.36364V1.36364H5.45455V5.45455ZM13.6364 0H9.54545C9.1838 0 8.83695 0.143668 8.58122 0.3994C8.32549 0.655131 8.18182 1.00198 8.18182 1.36364V5.45455C8.18182 5.8162 8.32549 6.16305 8.58122 6.41878C8.83695 6.67451 9.1838 6.81818 9.54545 6.81818H13.6364C13.998 6.81818 14.3449 6.67451 14.6006 6.41878C14.8563 6.16305 15 5.8162 15 5.45455V1.36364C15 1.00198 14.8563 0.655131 14.6006 0.3994C14.3449 0.143668 13.998 0 13.6364 0ZM13.6364 5.45455H9.54545V1.36364H13.6364V5.45455ZM5.45455 8.18182H1.36364C1.00198 8.18182 0.655131 8.32549 0.3994 8.58122C0.143668 8.83695 0 9.1838 0 9.54545V13.6364C0 13.998 0.143668 14.3449 0.3994 14.6006C0.655131 14.8563 1.00198 15 1.36364 15H5.45455C5.8162 15 6.16305 14.8563 6.41878 14.6006C6.67451 14.3449 6.81818 13.998 6.81818 13.6364V9.54545C6.81818 9.1838 6.67451 8.83695 6.41878 8.58122C6.16305 8.32549 5.8162 8.18182 5.45455 8.18182ZM5.45455 13.6364H1.36364V9.54545H5.45455V13.6364ZM13.6364 8.18182H9.54545C9.1838 8.18182 8.83695 8.32549 8.58122 8.58122C8.32549 8.83695 8.18182 9.1838 8.18182 9.54545V13.6364C8.18182 13.998 8.32549 14.3449 8.58122 14.6006C8.83695 14.8563 9.1838 15 9.54545 15H13.6364C13.998 15 14.3449 14.8563 14.6006 14.6006C14.8563 14.3449 15 13.998 15 13.6364V9.54545C15 9.1838 14.8563 8.83695 14.6006 8.58122C14.3449 8.32549 13.998 8.18182 13.6364 8.18182ZM13.6364 13.6364H9.54545V9.54545H13.6364V13.6364Z" fill="#C2C0C0"/>
</svg>
