<svg width="12" height="12" viewBox="0 0 12 12" fill="none" xmlns="http://www.w3.org/2000/svg">
<path d="M6 0C4.81331 0 3.65328 0.351894 2.66658 1.01118C1.67989 1.67047 0.910851 2.60754 0.456725 3.7039C0.00259971 4.80025 -0.11622 6.00666 0.115291 7.17054C0.346802 8.33443 0.918247 9.40352 1.75736 10.2426C2.59648 11.0818 3.66557 11.6532 4.82946 11.8847C5.99335 12.1162 7.19975 11.9974 8.2961 11.5433C9.39246 11.0891 10.3295 10.3201 10.9888 9.33342C11.6481 8.34672 12 7.18669 12 6C11.9983 4.40922 11.3656 2.88407 10.2408 1.75921C9.11593 0.63436 7.59078 0.0016799 6 0ZM6 11.0769C4.99588 11.0769 4.01431 10.7792 3.17941 10.2213C2.34452 9.66345 1.6938 8.87054 1.30954 7.94285C0.925277 7.01517 0.824737 5.99437 1.02063 5.00954C1.21653 4.02471 1.70006 3.12009 2.41008 2.41007C3.1201 1.70005 4.02472 1.21652 5.00954 1.02063C5.99437 0.824734 7.01517 0.925274 7.94286 1.30953C8.87054 1.69379 9.66345 2.34452 10.2213 3.17941C10.7792 4.01431 11.0769 4.99588 11.0769 6C11.0754 7.34601 10.54 8.63646 9.58824 9.58824C8.63646 10.54 7.34602 11.0754 6 11.0769ZM8.76923 6C8.76923 6.12241 8.72061 6.2398 8.63405 6.32636C8.5475 6.41291 8.4301 6.46154 8.30769 6.46154H6.46154V8.30769C6.46154 8.4301 6.41291 8.54749 6.32636 8.63405C6.2398 8.7206 6.12241 8.76923 6 8.76923C5.87759 8.76923 5.7602 8.7206 5.67364 8.63405C5.58709 8.54749 5.53846 8.4301 5.53846 8.30769V6.46154H3.69231C3.5699 6.46154 3.45251 6.41291 3.36595 6.32636C3.2794 6.2398 3.23077 6.12241 3.23077 6C3.23077 5.87759 3.2794 5.7602 3.36595 5.67364C3.45251 5.58709 3.5699 5.53846 3.69231 5.53846H5.53846V3.69231C5.53846 3.5699 5.58709 3.45251 5.67364 3.36595C5.7602 3.27939 5.87759 3.23077 6 3.23077C6.12241 3.23077 6.2398 3.27939 6.32636 3.36595C6.41291 3.45251 6.46154 3.5699 6.46154 3.69231V5.53846H8.30769C8.4301 5.53846 8.5475 5.58709 8.63405 5.67364C8.72061 5.7602 8.76923 5.87759 8.76923 6Z" fill="#A7A4A4"/>
</svg>
