<svg width="183" height="89" viewBox="0 0 183 89" fill="none" xmlns="http://www.w3.org/2000/svg">
<path d="M22.2628 9.96C22.2628 11.5867 21.8895 13.08 21.1428 14.44C20.3961 15.7733 19.2495 16.8533 17.7028 17.68C16.1561 18.5067 14.2361 18.92 11.9428 18.92H7.70281V29H0.862813V0.919999H11.9428C14.1828 0.919999 16.0761 1.30667 17.6228 2.08C19.1695 2.85333 20.3295 3.92 21.1028 5.28C21.8761 6.64 22.2628 8.2 22.2628 9.96ZM11.4228 13.48C12.7295 13.48 13.7028 13.1733 14.3428 12.56C14.9828 11.9467 15.3028 11.08 15.3028 9.96C15.3028 8.84 14.9828 7.97333 14.3428 7.36C13.7028 6.74667 12.7295 6.44 11.4228 6.44H7.70281V13.48H11.4228ZM39.1038 29.28C36.4638 29.28 34.0371 28.6667 31.8238 27.44C29.6371 26.2133 27.8904 24.5067 26.5838 22.32C25.3037 20.1067 24.6637 17.6267 24.6637 14.88C24.6637 12.1333 25.3037 9.66667 26.5838 7.48C27.8904 5.29333 29.6371 3.58667 31.8238 2.36C34.0371 1.13333 36.4638 0.52 39.1038 0.52C41.7438 0.52 44.1571 1.13333 46.3438 2.36C48.5571 3.58667 50.2904 5.29333 51.5438 7.48C52.8238 9.66667 53.4638 12.1333 53.4638 14.88C53.4638 17.6267 52.8238 20.1067 51.5438 22.32C50.2638 24.5067 48.5304 26.2133 46.3438 27.44C44.1571 28.6667 41.7438 29.28 39.1038 29.28ZM39.1038 23.04C41.3438 23.04 43.1304 22.2933 44.4637 20.8C45.8238 19.3067 46.5038 17.3333 46.5038 14.88C46.5038 12.4 45.8238 10.4267 44.4637 8.96C43.1304 7.46666 41.3438 6.72 39.1038 6.72C36.8371 6.72 35.0238 7.45333 33.6638 8.92C32.3304 10.3867 31.6638 12.3733 31.6638 14.88C31.6638 17.36 32.3304 19.3467 33.6638 20.84C35.0238 22.3067 36.8371 23.04 39.1038 23.04ZM73.5491 29L64.1091 16.6V29H57.2691V0.919999H64.1091V13.24L73.4691 0.919999H81.5091L70.6291 14.68L81.9091 29H73.5491ZM91.9997 6.4V12.08H101.16V17.36H91.9997V23.52H102.36V29H85.1597V0.919999H102.36V6.4H91.9997ZM117.32 0.919999C120.28 0.919999 122.867 1.50667 125.08 2.68C127.294 3.85333 129 5.50667 130.2 7.64C131.427 9.74667 132.04 12.1867 132.04 14.96C132.04 17.7067 131.427 20.1467 130.2 22.28C129 24.4133 127.28 26.0667 125.04 27.24C122.827 28.4133 120.254 29 117.32 29H106.8V0.919999H117.32ZM116.88 23.08C119.467 23.08 121.48 22.3733 122.92 20.96C124.36 19.5467 125.08 17.5467 125.08 14.96C125.08 12.3733 124.36 10.36 122.92 8.92C121.48 7.48 119.467 6.76 116.88 6.76H113.64V23.08H116.88ZM142.703 6.4V12.08H151.863V17.36H142.703V23.52H153.063V29H135.863V0.919999H153.063V6.4H142.703ZM174.703 29L168.983 20.4L163.943 29H156.183L165.183 14.72L155.983 0.919999H163.943L169.583 9.4L174.543 0.919999H182.303L173.383 15.08L182.663 29H174.703ZM77.835 84.04H67.355L65.675 89H58.515L68.675 60.92H76.595L86.755 89H79.515L77.835 84.04ZM76.075 78.76L72.595 68.48L69.155 78.76H76.075ZM111.247 69.96C111.247 71.5867 110.874 73.08 110.127 74.44C109.381 75.7733 108.234 76.8533 106.687 77.68C105.141 78.5067 103.221 78.92 100.927 78.92H96.6872V89H89.8472V60.92H100.927C103.167 60.92 105.061 61.3067 106.607 62.08C108.154 62.8533 109.314 63.92 110.087 65.28C110.861 66.64 111.247 68.2 111.247 69.96ZM100.407 73.48C101.714 73.48 102.687 73.1733 103.327 72.56C103.967 71.9467 104.287 71.08 104.287 69.96C104.287 68.84 103.967 67.9733 103.327 67.36C102.687 66.7467 101.714 66.44 100.407 66.44H96.6872V73.48H100.407ZM121.648 60.92V89H114.808V60.92H121.648Z" fill="url(#paint0_linear_2_4)"/>
<defs>
<linearGradient id="paint0_linear_2_4" x1="91" y1="-15" x2="91" y2="105" gradientUnits="userSpaceOnUse">
<stop offset="0.206731" stop-color="#FF0000"/>
<stop offset="0.596154" stop-color="#030303" stop-opacity="0.5"/>
<stop offset="0.735577" stop-color="white"/>
</linearGradient>
</defs>
</svg>
