<svg width="88" height="88" viewBox="0 0 88 88" fill="none" xmlns="http://www.w3.org/2000/svg">
<g filter="url(#filter0_d_8_167)">
<rect x="4" width="80" height="80" rx="40" fill="#707070"/>
</g>
<path d="M42.2244 26.4602C43.392 26.4687 44.5426 26.6818 45.6761 27.0994C46.8097 27.517 47.8324 28.1989 48.7443 29.1449C49.6648 30.0909 50.3977 31.3693 50.9432 32.9801C51.4972 34.5824 51.7784 36.5767 51.7869 38.9631C51.7869 41.2557 51.5568 43.2969 51.0966 45.0866C50.6364 46.8679 49.9759 48.3722 49.1151 49.5994C48.2628 50.8267 47.2273 51.7599 46.0085 52.3991C44.7898 53.0384 43.4176 53.358 41.892 53.358C40.3324 53.358 38.9474 53.0511 37.7372 52.4375C36.527 51.8239 35.5426 50.9759 34.7841 49.8935C34.0256 48.8026 33.5526 47.5497 33.3651 46.1349H37.2642C37.5199 47.2599 38.0398 48.1719 38.8239 48.8707C39.6165 49.5611 40.6392 49.9062 41.892 49.9062C43.8097 49.9062 45.3054 49.071 46.3793 47.4006C47.4531 45.7216 47.9943 43.3778 48.0028 40.3693H47.7983C47.3551 41.1023 46.8011 41.733 46.1364 42.2614C45.4801 42.7898 44.7429 43.1989 43.9247 43.4886C43.1065 43.7784 42.233 43.9233 41.304 43.9233C39.7955 43.9233 38.4233 43.5526 37.1875 42.8111C35.9517 42.0696 34.9673 41.0511 34.2344 39.7557C33.5014 38.4602 33.1349 36.9815 33.1349 35.3196C33.1349 33.6662 33.5099 32.1662 34.2599 30.8196C35.0185 29.473 36.0753 28.4077 37.4304 27.6236C38.794 26.831 40.392 26.4432 42.2244 26.4602ZM42.2372 29.7841C41.2401 29.7841 40.3409 30.0312 39.5398 30.5256C38.7472 31.0114 38.1207 31.6719 37.6605 32.5071C37.2003 33.3338 36.9702 34.2543 36.9702 35.2685C36.9702 36.2827 37.1918 37.2031 37.6349 38.0298C38.0866 38.848 38.7003 39.5 39.4759 39.9858C40.2599 40.4631 41.1548 40.7017 42.1605 40.7017C42.9105 40.7017 43.6094 40.5568 44.2571 40.267C44.9048 39.9773 45.4716 39.5767 45.9574 39.0653C46.4432 38.5455 46.8224 37.9574 47.0952 37.3011C47.3679 36.6449 47.5043 35.9545 47.5043 35.2301C47.5043 34.267 47.2741 33.3722 46.8139 32.5455C46.3622 31.7187 45.7401 31.054 44.9474 30.5511C44.1548 30.0398 43.2514 29.7841 42.2372 29.7841Z" fill="white"/>
<defs>
<filter id="filter0_d_8_167" x="0" y="0" width="88" height="88" filterUnits="userSpaceOnUse" color-interpolation-filters="sRGB">
<feFlood flood-opacity="0" result="BackgroundImageFix"/>
<feColorMatrix in="SourceAlpha" type="matrix" values="0 0 0 0 0 0 0 0 0 0 0 0 0 0 0 0 0 0 127 0" result="hardAlpha"/>
<feOffset dy="4"/>
<feGaussianBlur stdDeviation="2"/>
<feComposite in2="hardAlpha" operator="out"/>
<feColorMatrix type="matrix" values="0 0 0 0 1 0 0 0 0 0.980769 0 0 0 0 0.980769 0 0 0 0.81 0"/>
<feBlend mode="normal" in2="BackgroundImageFix" result="effect1_dropShadow_8_167"/>
<feBlend mode="normal" in="SourceGraphic" in2="effect1_dropShadow_8_167" result="shape"/>
</filter>
</defs>
</svg>
