<svg width="88" height="88" viewBox="0 0 88 88" fill="none" xmlns="http://www.w3.org/2000/svg">
<g filter="url(#filter0_d_8_155)">
<rect x="4" width="80" height="80" rx="40" fill="white"/>
<rect x="4.5" y="0.5" width="79" height="79" rx="39.5" stroke="black"/>
</g>
<mask id="path-3-outside-1_8_155" maskUnits="userSpaceOnUse" x="35" y="26" width="19" height="14" fill="black">
<rect fill="white" x="35" y="26" width="19" height="14"/>
<path d="M44.0923 29.2599H45.0128V30.5767H44.0923V29.2599ZM37.3551 38.6818L42.6605 27.5597H46.4446L51.75 38.6818H48.3622L44.4119 30.0653H44.6932L40.7812 38.6818H37.3551Z"/>
</mask>
<path d="M44.0923 29.2599H45.0128V30.5767H44.0923V29.2599ZM37.3551 38.6818L42.6605 27.5597H46.4446L51.75 38.6818H48.3622L44.4119 30.0653H44.6932L40.7812 38.6818H37.3551Z" fill="#868484"/>
<path d="M44.0923 29.2599V28.2599H43.0923V29.2599H44.0923ZM45.0128 29.2599H46.0128V28.2599H45.0128V29.2599ZM45.0128 30.5767V31.5767H46.0128V30.5767H45.0128ZM44.0923 30.5767H43.0923V31.5767H44.0923V30.5767ZM37.3551 38.6818L36.4525 38.2513L35.7702 39.6818H37.3551V38.6818ZM42.6605 27.5597V26.5597H42.0296L41.7579 27.1291L42.6605 27.5597ZM46.4446 27.5597L47.3472 27.1291L47.0755 26.5597H46.4446V27.5597ZM51.75 38.6818V39.6818H53.335L52.6526 38.2513L51.75 38.6818ZM48.3622 38.6818L47.4532 39.0986L47.7206 39.6818H48.3622V38.6818ZM44.4119 30.0653V29.0653H42.8534L43.5029 30.4821L44.4119 30.0653ZM44.6932 30.0653L45.6037 30.4787L46.2454 29.0653H44.6932V30.0653ZM40.7812 38.6818V39.6818H41.4255L41.6918 39.0952L40.7812 38.6818ZM44.0923 30.2599H45.0128V28.2599H44.0923V30.2599ZM44.0128 29.2599V30.5767H46.0128V29.2599H44.0128ZM45.0128 29.5767H44.0923V31.5767H45.0128V29.5767ZM45.0923 30.5767V29.2599H43.0923V30.5767H45.0923ZM38.2577 39.1124L43.5631 27.9902L41.7579 27.1291L36.4525 38.2513L38.2577 39.1124ZM42.6605 28.5597H46.4446V26.5597H42.6605V28.5597ZM45.542 27.9902L50.8474 39.1124L52.6526 38.2513L47.3472 27.1291L45.542 27.9902ZM51.75 37.6818H48.3622V39.6818H51.75V37.6818ZM49.2712 38.2651L45.321 29.6486L43.5029 30.4821L47.4532 39.0986L49.2712 38.2651ZM44.4119 31.0653H44.6932V29.0653H44.4119V31.0653ZM43.7826 29.6519L39.8707 38.2684L41.6918 39.0952L45.6037 30.4787L43.7826 29.6519ZM40.7812 37.6818H37.3551V39.6818H40.7812V37.6818Z" fill="black" mask="url(#path-3-outside-1_8_155)"/>
<defs>
<filter id="filter0_d_8_155" x="0" y="0" width="88" height="88" filterUnits="userSpaceOnUse" color-interpolation-filters="sRGB">
<feFlood flood-opacity="0" result="BackgroundImageFix"/>
<feColorMatrix in="SourceAlpha" type="matrix" values="0 0 0 0 0 0 0 0 0 0 0 0 0 0 0 0 0 0 127 0" result="hardAlpha"/>
<feOffset dy="4"/>
<feGaussianBlur stdDeviation="2"/>
<feComposite in2="hardAlpha" operator="out"/>
<feColorMatrix type="matrix" values="0 0 0 0 1 0 0 0 0 0.980769 0 0 0 0 0.980769 0 0 0 0.81 0"/>
<feBlend mode="normal" in2="BackgroundImageFix" result="effect1_dropShadow_8_155"/>
<feBlend mode="normal" in="SourceGraphic" in2="effect1_dropShadow_8_155" result="shape"/>
</filter>
</defs>
</svg>
