<svg width="88" height="88" viewBox="0 0 88 88" fill="none" xmlns="http://www.w3.org/2000/svg">
<g filter="url(#filter0_d_8_144)">
<rect x="4" width="80" height="80" rx="40" fill="#D9D9D9"/>
</g>
<path d="M43.3651 53.358C41.5327 53.358 39.9134 53.0426 38.5071 52.4119C37.1094 51.7812 36.0142 50.9119 35.2216 49.804C34.429 48.696 34.0369 47.4347 34.0455 46.0199C34.0369 44.9119 34.2628 43.8935 34.723 42.9645C35.1918 42.027 35.8267 41.2472 36.6278 40.625C37.429 39.9943 38.3239 39.5938 39.3125 39.4233V39.2699C38.0085 38.9545 36.9645 38.2557 36.1804 37.1733C35.3963 36.0909 35.0085 34.8466 35.017 33.4403C35.0085 32.1023 35.3622 30.9091 36.0781 29.8608C36.8026 28.804 37.7955 27.973 39.0568 27.3679C40.3182 26.7628 41.7543 26.4602 43.3651 26.4602C44.9588 26.4602 46.3821 26.767 47.6349 27.3807C48.8963 27.9858 49.8892 28.8168 50.6136 29.8736C51.3381 30.9219 51.7045 32.1108 51.7131 33.4403C51.7045 34.8466 51.304 36.0909 50.5114 37.1733C49.7188 38.2557 48.6875 38.9545 47.4176 39.2699V39.4233C48.3977 39.5938 49.2798 39.9943 50.0639 40.625C50.8565 41.2472 51.4872 42.027 51.956 42.9645C52.4332 43.8935 52.6761 44.9119 52.6847 46.0199C52.6761 47.4347 52.2756 48.696 51.483 49.804C50.6903 50.9119 49.5909 51.7812 48.1847 52.4119C46.7869 53.0426 45.1804 53.358 43.3651 53.358ZM43.3651 50.1236C44.4474 50.1236 45.3849 49.9446 46.1776 49.5866C46.9702 49.2202 47.5838 48.7131 48.0185 48.0653C48.4531 47.4091 48.6747 46.642 48.6832 45.7642C48.6747 44.8523 48.4361 44.0469 47.9673 43.348C47.5071 42.6491 46.8807 42.0994 46.0881 41.6989C45.2955 41.2983 44.3878 41.098 43.3651 41.098C42.3338 41.098 41.4176 41.2983 40.6165 41.6989C39.8153 42.0994 39.1847 42.6491 38.7244 43.348C38.2642 44.0469 38.0384 44.8523 38.0469 45.7642C38.0384 46.642 38.2472 47.4091 38.6733 48.0653C39.108 48.7131 39.7259 49.2202 40.527 49.5866C41.3281 49.9446 42.2741 50.1236 43.3651 50.1236ZM43.3651 37.9403C44.2344 37.9403 45.0057 37.7656 45.679 37.4162C46.3523 37.0668 46.8807 36.581 47.2642 35.9588C47.6563 35.3366 47.8565 34.608 47.8651 33.7727C47.8565 32.9545 47.6605 32.2386 47.277 31.625C46.902 31.0114 46.3778 30.5384 45.7045 30.206C45.0313 29.8651 44.2514 29.6946 43.3651 29.6946C42.4616 29.6946 41.669 29.8651 40.9872 30.206C40.3139 30.5384 39.7898 31.0114 39.4148 31.625C39.0398 32.2386 38.8565 32.9545 38.8651 33.7727C38.8565 34.608 39.044 35.3366 39.4276 35.9588C39.8111 36.581 40.3395 37.0668 41.0128 37.4162C41.6946 37.7656 42.4787 37.9403 43.3651 37.9403Z" fill="#868484"/>
<defs>
<filter id="filter0_d_8_144" x="0" y="0" width="88" height="88" filterUnits="userSpaceOnUse" color-interpolation-filters="sRGB">
<feFlood flood-opacity="0" result="BackgroundImageFix"/>
<feColorMatrix in="SourceAlpha" type="matrix" values="0 0 0 0 0 0 0 0 0 0 0 0 0 0 0 0 0 0 127 0" result="hardAlpha"/>
<feOffset dy="4"/>
<feGaussianBlur stdDeviation="2"/>
<feComposite in2="hardAlpha" operator="out"/>
<feColorMatrix type="matrix" values="0 0 0 0 0.149038 0 0 0 0 0.0587555 0 0 0 0 0.0587555 0 0 0 0.81 0"/>
<feBlend mode="normal" in2="BackgroundImageFix" result="effect1_dropShadow_8_144"/>
<feBlend mode="normal" in="SourceGraphic" in2="effect1_dropShadow_8_144" result="shape"/>
</filter>
</defs>
</svg>
