<svg width="88" height="88" viewBox="0 0 88 88" fill="none" xmlns="http://www.w3.org/2000/svg">
<g filter="url(#filter0_d_8_134)">
<rect x="4" width="80" height="80" rx="40" fill="#F2EE7F" fill-opacity="0.64" shape-rendering="crispEdges"/>
</g>
<path d="M44.1847 46.0909V44.7102C44.1847 43.7216 44.3892 42.8182 44.7983 42C45.2159 41.1733 45.821 40.5128 46.6136 40.0185C47.4148 39.5156 48.3821 39.2642 49.5156 39.2642C50.6747 39.2642 51.6463 39.5114 52.4304 40.0057C53.2145 40.5 53.8068 41.1605 54.2074 41.9872C54.6165 42.8139 54.821 43.7216 54.821 44.7102V46.0909C54.821 47.0795 54.6165 47.9872 54.2074 48.8139C53.7983 49.6321 53.1974 50.2926 52.4048 50.7955C51.6207 51.2898 50.6577 51.5369 49.5156 51.5369C48.3651 51.5369 47.3935 51.2898 46.6009 50.7955C45.8082 50.2926 45.2074 49.6321 44.7983 48.8139C44.3892 47.9872 44.1847 47.0795 44.1847 46.0909ZM47.1634 44.7102V46.0909C47.1634 46.8239 47.3381 47.4886 47.6875 48.0852C48.0369 48.6818 48.6463 48.9801 49.5156 48.9801C50.3764 48.9801 50.9773 48.6818 51.3182 48.0852C51.6591 47.4886 51.8295 46.8239 51.8295 46.0909V44.7102C51.8295 43.9773 51.6634 43.3125 51.331 42.7159C51.0071 42.1193 50.402 41.821 49.5156 41.821C48.6634 41.821 48.0582 42.1193 47.7003 42.7159C47.3423 43.3125 47.1634 43.9773 47.1634 44.7102ZM31.017 31.108V29.7273C31.017 28.7386 31.2216 27.831 31.6307 27.0043C32.0483 26.1776 32.6534 25.517 33.446 25.0227C34.2472 24.5284 35.2145 24.2812 36.348 24.2812C37.5071 24.2812 38.4787 24.5284 39.2628 25.0227C40.0469 25.517 40.6392 26.1776 41.0398 27.0043C41.4403 27.831 41.6406 28.7386 41.6406 29.7273V31.108C41.6406 32.0966 41.4361 33.0043 41.027 33.831C40.6264 34.6491 40.0298 35.3097 39.2372 35.8125C38.4531 36.3068 37.4901 36.554 36.348 36.554C35.1889 36.554 34.2131 36.3068 33.4205 35.8125C32.6364 35.3097 32.0398 34.6491 31.6307 33.831C31.2216 33.0043 31.017 32.0966 31.017 31.108ZM34.0085 29.7273V31.108C34.0085 31.8409 34.179 32.5057 34.5199 33.1023C34.8693 33.6989 35.4787 33.9972 36.348 33.9972C37.2003 33.9972 37.7969 33.6989 38.1378 33.1023C38.4872 32.5057 38.6619 31.8409 38.6619 31.108V29.7273C38.6619 28.9943 38.4957 28.3295 38.1634 27.733C37.831 27.1364 37.2259 26.8381 36.348 26.8381C35.4957 26.8381 34.8906 27.1364 34.5327 27.733C34.1832 28.3295 34.0085 28.9943 34.0085 29.7273ZM32.2315 51L50.2315 24.8182H53.2869L35.2869 51H32.2315Z" fill="#868484"/>
<defs>
<filter id="filter0_d_8_134" x="0" y="0" width="88" height="88" filterUnits="userSpaceOnUse" color-interpolation-filters="sRGB">
<feFlood flood-opacity="0" result="BackgroundImageFix"/>
<feColorMatrix in="SourceAlpha" type="matrix" values="0 0 0 0 0 0 0 0 0 0 0 0 0 0 0 0 0 0 127 0" result="hardAlpha"/>
<feOffset dy="4"/>
<feGaussianBlur stdDeviation="2"/>
<feComposite in2="hardAlpha" operator="out"/>
<feColorMatrix type="matrix" values="0 0 0 0 0.149038 0 0 0 0 0.0587555 0 0 0 0 0.0587555 0 0 0 0.81 0"/>
<feBlend mode="normal" in2="BackgroundImageFix" result="effect1_dropShadow_8_134"/>
<feBlend mode="normal" in="SourceGraphic" in2="effect1_dropShadow_8_134" result="shape"/>
</filter>
</defs>
</svg>
