<svg width="88" height="88" viewBox="0 0 88 88" fill="none" xmlns="http://www.w3.org/2000/svg">
<g filter="url(#filter0_d_8_140)">
<rect x="4" width="80" height="80" rx="40" fill="#D9D9D9"/>
</g>
<path d="M43.1605 53.358C41.5582 53.358 40.1179 53.0511 38.8395 52.4375C37.5696 51.8153 36.5554 50.9631 35.7969 49.8807C35.0384 48.7983 34.6335 47.5625 34.5824 46.1733H38.4176C38.5114 47.2983 39.0099 48.223 39.9134 48.9474C40.8168 49.6719 41.8991 50.0341 43.1605 50.0341C44.1662 50.0341 45.0568 49.804 45.8324 49.3438C46.6165 48.875 47.2301 48.2315 47.6733 47.4134C48.125 46.5952 48.3509 45.6619 48.3509 44.6136C48.3509 43.5483 48.1207 42.598 47.6605 41.7628C47.2003 40.9276 46.5653 40.2713 45.7557 39.794C44.9545 39.3168 44.0341 39.0739 42.9943 39.0653C42.2017 39.0653 41.4048 39.2017 40.6037 39.4744C39.8026 39.7472 39.1548 40.1051 38.6605 40.5483L35.0426 40.0114L36.5128 26.8182H50.9077V30.206H39.7983L38.9673 37.5312H39.1207C39.6321 37.0369 40.3097 36.6236 41.1534 36.2912C42.0057 35.9588 42.9176 35.7926 43.8892 35.7926C45.483 35.7926 46.902 36.1719 48.1463 36.9304C49.3991 37.6889 50.3835 38.7244 51.0994 40.0369C51.8239 41.3409 52.1818 42.8409 52.1733 44.5369C52.1818 46.233 51.7983 47.7457 51.0227 49.0753C50.2557 50.4048 49.1903 51.4531 47.8267 52.2202C46.4716 52.9787 44.9162 53.358 43.1605 53.358Z" fill="#868484"/>
<defs>
<filter id="filter0_d_8_140" x="0" y="0" width="88" height="88" filterUnits="userSpaceOnUse" color-interpolation-filters="sRGB">
<feFlood flood-opacity="0" result="BackgroundImageFix"/>
<feColorMatrix in="SourceAlpha" type="matrix" values="0 0 0 0 0 0 0 0 0 0 0 0 0 0 0 0 0 0 127 0" result="hardAlpha"/>
<feOffset dy="4"/>
<feGaussianBlur stdDeviation="2"/>
<feComposite in2="hardAlpha" operator="out"/>
<feColorMatrix type="matrix" values="0 0 0 0 0.149038 0 0 0 0 0.0587555 0 0 0 0 0.0587555 0 0 0 0.81 0"/>
<feBlend mode="normal" in2="BackgroundImageFix" result="effect1_dropShadow_8_140"/>
<feBlend mode="normal" in="SourceGraphic" in2="effect1_dropShadow_8_140" result="shape"/>
</filter>
</defs>
</svg>
