<svg width="88" height="88" viewBox="0 0 88 88" fill="none" xmlns="http://www.w3.org/2000/svg">
<g filter="url(#filter0_d_8_131)">
<rect x="4" width="80" height="80" rx="40" fill="#F2EE7F" fill-opacity="0.64" shape-rendering="crispEdges"/>
</g>
<path d="M53.6222 37.3324H49.6335C49.4801 36.4801 49.1946 35.7301 48.777 35.0824C48.3594 34.4347 47.848 33.8849 47.2429 33.4332C46.6378 32.9815 45.9602 32.6406 45.2102 32.4105C44.4688 32.1804 43.6804 32.0653 42.8452 32.0653C41.3366 32.0653 39.9858 32.4446 38.7926 33.2031C37.608 33.9616 36.6705 35.0739 35.9801 36.5398C35.2983 38.0057 34.9574 39.7955 34.9574 41.9091C34.9574 44.0398 35.2983 45.8381 35.9801 47.304C36.6705 48.7699 37.6122 49.8778 38.8054 50.6278C39.9986 51.3778 41.3409 51.7528 42.8324 51.7528C43.6591 51.7528 44.4432 51.642 45.1847 51.4205C45.9347 51.1903 46.6122 50.8537 47.2173 50.4105C47.8224 49.9673 48.3338 49.4261 48.7514 48.7869C49.1776 48.1392 49.4716 47.3977 49.6335 46.5625L53.6222 46.5753C53.4091 47.8622 52.9957 49.0469 52.3821 50.1293C51.777 51.2031 50.9972 52.1321 50.0426 52.9162C49.0966 53.6918 48.0142 54.2926 46.7955 54.7188C45.5767 55.1449 44.2472 55.358 42.8068 55.358C40.5398 55.358 38.5199 54.821 36.7472 53.7472C34.9744 52.6648 33.5767 51.1179 32.554 49.1065C31.5398 47.0952 31.0327 44.696 31.0327 41.9091C31.0327 39.1136 31.544 36.7145 32.5668 34.7116C33.5895 32.7003 34.9872 31.1577 36.7599 30.0838C38.5327 29.0014 40.5483 28.4602 42.8068 28.4602C44.196 28.4602 45.4915 28.6605 46.6932 29.0611C47.9034 29.4531 48.9901 30.0327 49.9531 30.7997C50.9162 31.5582 51.7131 32.4872 52.3438 33.5866C52.9744 34.6776 53.4006 35.9261 53.6222 37.3324Z" fill="#868484"/>
<defs>
<filter id="filter0_d_8_131" x="0" y="0" width="88" height="88" filterUnits="userSpaceOnUse" color-interpolation-filters="sRGB">
<feFlood flood-opacity="0" result="BackgroundImageFix"/>
<feColorMatrix in="SourceAlpha" type="matrix" values="0 0 0 0 0 0 0 0 0 0 0 0 0 0 0 0 0 0 127 0" result="hardAlpha"/>
<feOffset dy="4"/>
<feGaussianBlur stdDeviation="2"/>
<feComposite in2="hardAlpha" operator="out"/>
<feColorMatrix type="matrix" values="0 0 0 0 0.149038 0 0 0 0 0.0587555 0 0 0 0 0.0587555 0 0 0 0.81 0"/>
<feBlend mode="normal" in2="BackgroundImageFix" result="effect1_dropShadow_8_131"/>
<feBlend mode="normal" in="SourceGraphic" in2="effect1_dropShadow_8_131" result="shape"/>
</filter>
</defs>
</svg>
