<svg width="88" height="88" viewBox="0 0 88 88" fill="none" xmlns="http://www.w3.org/2000/svg">
<g filter="url(#filter0_d_8_170)">
<rect x="4" width="80" height="80" rx="40" fill="#707070"/>
</g>
<path d="M43.6335 53.4347C41.6136 53.4261 39.8878 52.8935 38.456 51.8366C37.0241 50.7798 35.929 49.2415 35.1705 47.2216C34.4119 45.2017 34.0327 42.7685 34.0327 39.9219C34.0327 37.0838 34.4119 34.6591 35.1705 32.6477C35.9375 30.6364 37.0369 29.1023 38.4688 28.0455C39.9091 26.9886 41.6307 26.4602 43.6335 26.4602C45.6364 26.4602 47.3537 26.9929 48.7855 28.0582C50.2173 29.1151 51.3125 30.6491 52.071 32.6605C52.8381 34.6634 53.2216 37.0838 53.2216 39.9219C53.2216 42.777 52.8423 45.2145 52.0838 47.2344C51.3253 49.2457 50.2301 50.7841 48.7983 51.8494C47.3665 52.9063 45.6449 53.4347 43.6335 53.4347ZM43.6335 50.0213C45.4063 50.0213 46.7912 49.1562 47.7884 47.4261C48.794 45.696 49.2969 43.1946 49.2969 39.9219C49.2969 37.7486 49.0668 35.9119 48.6065 34.4119C48.1548 32.9034 47.5028 31.7614 46.6506 30.9858C45.8068 30.2017 44.8011 29.8097 43.6335 29.8097C41.8693 29.8097 40.4844 30.679 39.4787 32.4176C38.473 34.1562 37.9659 36.6577 37.9574 39.9219C37.9574 42.1037 38.1832 43.9489 38.6349 45.4574C39.0952 46.9574 39.7472 48.0952 40.5909 48.8707C41.4347 49.6378 42.4489 50.0213 43.6335 50.0213Z" fill="white"/>
<defs>
<filter id="filter0_d_8_170" x="0" y="0" width="88" height="88" filterUnits="userSpaceOnUse" color-interpolation-filters="sRGB">
<feFlood flood-opacity="0" result="BackgroundImageFix"/>
<feColorMatrix in="SourceAlpha" type="matrix" values="0 0 0 0 0 0 0 0 0 0 0 0 0 0 0 0 0 0 127 0" result="hardAlpha"/>
<feOffset dy="4"/>
<feGaussianBlur stdDeviation="2"/>
<feComposite in2="hardAlpha" operator="out"/>
<feColorMatrix type="matrix" values="0 0 0 0 1 0 0 0 0 0.980769 0 0 0 0 0.980769 0 0 0 0.81 0"/>
<feBlend mode="normal" in2="BackgroundImageFix" result="effect1_dropShadow_8_170"/>
<feBlend mode="normal" in="SourceGraphic" in2="effect1_dropShadow_8_170" result="shape"/>
</filter>
</defs>
</svg>
