<svg width="88" height="88" viewBox="0 0 88 88" fill="none" xmlns="http://www.w3.org/2000/svg">
<g filter="url(#filter0_d_8_141)">
<rect x="4" width="80" height="80" rx="40" fill="#D9D9D9"/>
</g>
<path d="M42.6591 53.358C41.4915 53.3409 40.3409 53.1278 39.2074 52.7188C38.0824 52.3097 37.0597 51.6278 36.1392 50.6733C35.2188 49.7187 34.4815 48.4361 33.9276 46.8253C33.3821 45.2145 33.1094 43.2031 33.1094 40.7912C33.1094 38.5071 33.3352 36.4787 33.7869 34.706C34.2472 32.9332 34.9077 31.4375 35.7685 30.2188C36.6293 28.9915 37.669 28.0582 38.8878 27.419C40.1065 26.7798 41.4744 26.4602 42.9915 26.4602C44.5511 26.4602 45.9361 26.767 47.1463 27.3807C48.3565 27.9943 49.3366 28.8423 50.0866 29.9247C50.8452 31.0071 51.3267 32.2386 51.5312 33.6193H47.6321C47.3679 32.5284 46.8438 31.6378 46.0597 30.9474C45.2756 30.2571 44.2528 29.9119 42.9915 29.9119C41.0739 29.9119 39.5781 30.7472 38.5043 32.4176C37.4389 34.0881 36.902 36.4105 36.8935 39.3849H37.0852C37.5369 38.6435 38.0909 38.0128 38.7472 37.4929C39.4119 36.9645 40.1534 36.5597 40.9716 36.2784C41.7983 35.9886 42.6676 35.8438 43.5795 35.8438C45.0966 35.8438 46.4688 36.2145 47.696 36.956C48.9318 37.6889 49.9162 38.7031 50.6491 39.9986C51.3821 41.294 51.7486 42.777 51.7486 44.4474C51.7486 46.1179 51.3693 47.6307 50.6108 48.9858C49.8608 50.3409 48.804 51.4148 47.4403 52.2074C46.0767 52.9915 44.483 53.375 42.6591 53.358ZM42.6463 50.0341C43.652 50.0341 44.5511 49.7869 45.3438 49.2926C46.1364 48.7983 46.7628 48.1335 47.223 47.2983C47.6832 46.4631 47.9134 45.5298 47.9134 44.4986C47.9134 43.4929 47.6875 42.5767 47.2358 41.75C46.7926 40.9233 46.179 40.267 45.3949 39.7812C44.6193 39.2955 43.733 39.0526 42.7358 39.0526C41.9773 39.0526 41.2741 39.1974 40.6264 39.4872C39.9872 39.777 39.4247 40.1776 38.9389 40.6889C38.4531 41.2003 38.0696 41.7884 37.7884 42.4531C37.5156 43.1094 37.3793 43.804 37.3793 44.5369C37.3793 45.517 37.6051 46.4247 38.0568 47.2599C38.517 48.0952 39.1435 48.7685 39.9361 49.2798C40.7372 49.7827 41.6406 50.0341 42.6463 50.0341Z" fill="#868484"/>
<defs>
<filter id="filter0_d_8_141" x="0" y="0" width="88" height="88" filterUnits="userSpaceOnUse" color-interpolation-filters="sRGB">
<feFlood flood-opacity="0" result="BackgroundImageFix"/>
<feColorMatrix in="SourceAlpha" type="matrix" values="0 0 0 0 0 0 0 0 0 0 0 0 0 0 0 0 0 0 127 0" result="hardAlpha"/>
<feOffset dy="4"/>
<feGaussianBlur stdDeviation="2"/>
<feComposite in2="hardAlpha" operator="out"/>
<feColorMatrix type="matrix" values="0 0 0 0 0.149038 0 0 0 0 0.0587555 0 0 0 0 0.0587555 0 0 0 0.81 0"/>
<feBlend mode="normal" in2="BackgroundImageFix" result="effect1_dropShadow_8_141"/>
<feBlend mode="normal" in="SourceGraphic" in2="effect1_dropShadow_8_141" result="shape"/>
</filter>
</defs>
</svg>
