<svg width="88" height="88" viewBox="0 0 88 88" fill="none" xmlns="http://www.w3.org/2000/svg">
<g filter="url(#filter0_d_8_153)">
<rect x="4" width="80" height="80" rx="40" fill="white"/>
<rect x="5" y="1" width="78" height="78" rx="39" stroke="black" stroke-width="2"/>
</g>
<path d="M54.6222 35.3324H50.6335C50.4801 34.4801 50.1946 33.7301 49.777 33.0824C49.3594 32.4347 48.848 31.8849 48.2429 31.4332C47.6378 30.9815 46.9602 30.6406 46.2102 30.4105C45.4688 30.1804 44.6804 30.0653 43.8452 30.0653C42.3366 30.0653 40.9858 30.4446 39.7926 31.2031C38.608 31.9616 37.6705 33.0739 36.9801 34.5398C36.2983 36.0057 35.9574 37.7955 35.9574 39.9091C35.9574 42.0398 36.2983 43.8381 36.9801 45.304C37.6705 46.7699 38.6122 47.8778 39.8054 48.6278C40.9986 49.3778 42.3409 49.7528 43.8324 49.7528C44.6591 49.7528 45.4432 49.642 46.1847 49.4205C46.9347 49.1903 47.6122 48.8537 48.2173 48.4105C48.8224 47.9673 49.3338 47.4261 49.7514 46.7869C50.1776 46.1392 50.4716 45.3977 50.6335 44.5625L54.6222 44.5753C54.4091 45.8622 53.9957 47.0469 53.3821 48.1293C52.777 49.2031 51.9972 50.1321 51.0426 50.9162C50.0966 51.6918 49.0142 52.2926 47.7955 52.7188C46.5767 53.1449 45.2472 53.358 43.8068 53.358C41.5398 53.358 39.5199 52.821 37.7472 51.7472C35.9744 50.6648 34.5767 49.1179 33.554 47.1065C32.5398 45.0952 32.0327 42.696 32.0327 39.9091C32.0327 37.1136 32.544 34.7145 33.5668 32.7116C34.5895 30.7003 35.9872 29.1577 37.7599 28.0838C39.5327 27.0014 41.5483 26.4602 43.8068 26.4602C45.196 26.4602 46.4915 26.6605 47.6932 27.0611C48.9034 27.4531 49.9901 28.0327 50.9531 28.7997C51.9162 29.5582 52.7131 30.4872 53.3438 31.5866C53.9744 32.6776 54.4006 33.9261 54.6222 35.3324Z" fill="#FE0000"/>
<defs>
<filter id="filter0_d_8_153" x="0" y="0" width="88" height="88" filterUnits="userSpaceOnUse" color-interpolation-filters="sRGB">
<feFlood flood-opacity="0" result="BackgroundImageFix"/>
<feColorMatrix in="SourceAlpha" type="matrix" values="0 0 0 0 0 0 0 0 0 0 0 0 0 0 0 0 0 0 127 0" result="hardAlpha"/>
<feOffset dy="4"/>
<feGaussianBlur stdDeviation="2"/>
<feComposite in2="hardAlpha" operator="out"/>
<feColorMatrix type="matrix" values="0 0 0 0 1 0 0 0 0 0.980769 0 0 0 0 0.980769 0 0 0 0.81 0"/>
<feBlend mode="normal" in2="BackgroundImageFix" result="effect1_dropShadow_8_153"/>
<feBlend mode="normal" in="SourceGraphic" in2="effect1_dropShadow_8_153" result="shape"/>
</filter>
</defs>
</svg>
