<svg width="88" height="88" viewBox="0 0 88 88" fill="none" xmlns="http://www.w3.org/2000/svg">
<g filter="url(#filter0_d_8_137)">
<rect x="4" width="80" height="80" rx="40" fill="#D9D9D9"/>
</g>
<path d="M42.6335 50.358C40.8778 50.358 39.3097 50.0554 37.929 49.4503C36.5568 48.8452 35.4702 48.0057 34.669 46.9318C33.8764 45.8494 33.4503 44.5966 33.3906 43.1733H37.4048C37.456 43.9489 37.7159 44.6222 38.1847 45.1932C38.6619 45.7557 39.2841 46.1903 40.0511 46.4972C40.8182 46.804 41.6705 46.9574 42.608 46.9574C43.6392 46.9574 44.5511 46.7784 45.3438 46.4205C46.1449 46.0625 46.7713 45.5639 47.223 44.9247C47.6747 44.277 47.9006 43.5312 47.9006 42.6875C47.9006 41.8097 47.6747 41.0384 47.223 40.3736C46.7798 39.7003 46.1278 39.1719 45.267 38.7884C44.4148 38.4048 43.3835 38.2131 42.1733 38.2131H39.9616V34.9915H42.1733C43.1449 34.9915 43.9972 34.8168 44.7301 34.4673C45.4716 34.1179 46.0511 33.6321 46.4688 33.0099C46.8864 32.3793 47.0952 31.642 47.0952 30.7983C47.0952 29.9886 46.9119 29.2855 46.5455 28.6889C46.1875 28.0838 45.6761 27.6108 45.0114 27.2699C44.3551 26.929 43.5795 26.7585 42.6847 26.7585C41.8324 26.7585 41.0355 26.9162 40.294 27.2315C39.5611 27.5384 38.9645 27.9815 38.5043 28.5611C38.044 29.1321 37.7969 29.8182 37.7628 30.6193H33.9403C33.983 29.2045 34.4006 27.9602 35.1932 26.8864C35.9943 25.8125 37.0511 24.973 38.3636 24.3679C39.6761 23.7628 41.1335 23.4602 42.7358 23.4602C44.4148 23.4602 45.8636 23.7884 47.0824 24.4446C48.3097 25.0923 49.2557 25.9574 49.9205 27.0398C50.5938 28.1222 50.9261 29.3068 50.9176 30.5938C50.9261 32.0597 50.517 33.304 49.6903 34.3267C48.8722 35.3494 47.7813 36.0355 46.4176 36.3849V36.5895C48.1563 36.8537 49.5028 37.544 50.4574 38.6605C51.4205 39.777 51.8977 41.1619 51.8892 42.8153C51.8977 44.2557 51.4972 45.5469 50.6875 46.6889C49.8864 47.831 48.7912 48.7301 47.402 49.3864C46.0128 50.0341 44.4233 50.358 42.6335 50.358Z" fill="#868484"/>
<defs>
<filter id="filter0_d_8_137" x="0" y="0" width="88" height="88" filterUnits="userSpaceOnUse" color-interpolation-filters="sRGB">
<feFlood flood-opacity="0" result="BackgroundImageFix"/>
<feColorMatrix in="SourceAlpha" type="matrix" values="0 0 0 0 0 0 0 0 0 0 0 0 0 0 0 0 0 0 127 0" result="hardAlpha"/>
<feOffset dy="4"/>
<feGaussianBlur stdDeviation="2"/>
<feComposite in2="hardAlpha" operator="out"/>
<feColorMatrix type="matrix" values="0 0 0 0 0.149038 0 0 0 0 0.0587555 0 0 0 0 0.0587555 0 0 0 0.81 0"/>
<feBlend mode="normal" in2="BackgroundImageFix" result="effect1_dropShadow_8_137"/>
<feBlend mode="normal" in="SourceGraphic" in2="effect1_dropShadow_8_137" result="shape"/>
</filter>
</defs>
</svg>
